<?xml version="1.0" encoding="UTF-8" standalone="no"?>
<svg
   xmlns:dc="http://purl.org/dc/elements/1.1/"
   xmlns:cc="http://creativecommons.org/ns#"
   xmlns:rdf="http://www.w3.org/1999/02/22-rdf-syntax-ns#"
   xmlns:svg="http://www.w3.org/2000/svg"
   xmlns="http://www.w3.org/2000/svg"
   xmlns:sodipodi="http://sodipodi.sourceforge.net/DTD/sodipodi-0.dtd"
   xmlns:inkscape="http://www.inkscape.org/namespaces/inkscape"
   enable-background="new 0 0 512 512"
   height="512"
   viewBox="0 0 512 512"
   width="512"
   version="1.1"
   id="svg34"
   sodipodi:docname="basic.svg"
   inkscape:version="1.0 (4035a4fb49, 2020-05-01)">
  <metadata
     id="metadata40">
    <rdf:RDF>
      <cc:Work
         rdf:about="">
        <dc:format>image/svg+xml</dc:format>
        <dc:type
           rdf:resource="http://purl.org/dc/dcmitype/StillImage" />
      </cc:Work>
    </rdf:RDF>
  </metadata>
  <defs
     id="defs38" />
  <sodipodi:namedview
     inkscape:document-rotation="0"
     pagecolor="#ffffff"
     bordercolor="#666666"
     borderopacity="1"
     objecttolerance="10"
     gridtolerance="10"
     guidetolerance="10"
     inkscape:pageopacity="0"
     inkscape:pageshadow="2"
     inkscape:window-width="1366"
     inkscape:window-height="705"
     id="namedview36"
     showgrid="false"
     inkscape:zoom="0.68029101"
     inkscape:cx="154.45786"
     inkscape:cy="160.69715"
     inkscape:window-x="-8"
     inkscape:window-y="-8"
     inkscape:window-maximized="1"
     inkscape:current-layer="svg34" />
  <circle
     cx="417"
     cy="332.659"
     fill="#d6d3c5"
     r="80"
     id="circle2" />
  <path
     d="m417 427.659c-52.383 0-95-42.617-95-95s42.617-95 95-95 95.001 42.617 95.001 95-42.618 95-95.001 95zm0-160.001c-35.841 0-65 29.159-65 65s29.159 65 65 65 65-29.158 65-65-29.159-65-65-65z"
     fill="#4c4a40"
     id="path4"
     style="fill:#878477;fill-opacity:1" />
  <path
     d="m416.988 347.659c-3.099 0-6.224-.957-8.907-2.941l-64.325-47.567c-6.661-4.926-8.067-14.318-3.142-20.979 4.927-6.661 14.319-8.066 20.979-3.142l64.325 47.567c6.661 4.926 8.067 14.318 3.142 20.979-2.942 3.979-7.477 6.083-12.072 6.083z"
     fill="#4c4a40"
     id="path6"
     style="fill:#a19d8d;fill-opacity:1" />
  <circle
     cx="95"
     cy="332.659"
     fill="#edeade"
     r="80"
     id="circle8" />
  <path
     d="m95 427.659c-52.383 0-95-42.617-95-95s42.617-95 95-95 95 42.617 95 95-42.616 95-95 95zm0-160.001c-35.841 0-65 29.159-65 65s29.159 65 65 65 65-29.159 65-65-29.158-65-65-65z"
     fill="#878477"
     id="path10" />
  <path
     d="m95.864 347.658c-3.839 0-7.677-1.464-10.606-4.394-5.858-5.858-5.858-15.355 0-21.213l93.552-93.551c5.857-5.858 15.355-5.858 21.213 0s5.858 15.355 0 21.213l-93.552 93.551c-2.929 2.93-6.769 4.394-10.607 4.394z"
     fill="#a19d8d"
     id="path12" />
  <g
     fill="#787465"
     id="g18">
    <path
       d="m348.03 196.383c-2.117 0-4.266-.45-6.312-1.401l-51.042-23.722c-7.513-3.491-10.772-12.412-7.281-19.924 3.491-7.513 12.413-10.773 19.924-7.281l51.042 23.722c7.513 3.491 10.772 12.412 7.281 19.924-2.54 5.467-7.956 8.682-13.612 8.682z"
       id="path14"
       style="fill:#878477;fill-opacity:1" />
    <path
       d="m90.095 180.052v-6.81c0-16.569 13.431-30 30-30h67.897c16.569 0 30 13.432 30 30v30z"
       id="path16"
       style="fill:#878477;fill-opacity:1" />
  </g>
  <path
     style="fill:#2698d1;fill-opacity:1"
     d="m444.542 200.176c-.73-15.341-7.913-29.782-19.706-39.62l-87.188-72.733c-5.407-4.51-13.297-4.694-18.944-.225-4.672 3.698-6.546 9.929-5.135 15.718l16.574 67.983-74.145 23.408-43 24.951-20.01 37.329c17.954 21.504 27.013 46.789 27.013 75.671 0 5.63-.389 11.342-1.157 16.975-.782 5.74 1.806 11.558 6.961 14.783 2.459 1.538 5.349 2.243 8.25 2.243h75.534c22.76 0 41.586-17.8 42.862-40.524.182-3.239 1.588-6.29 3.826-8.639l72.41-76.008c10.806-10.914 16.585-25.972 15.855-41.312z"
     fill="#53b7f5"
     id="path20" />
  <path
     d="m309.588 366.659c22.76 0 41.586-17.8 42.862-40.524.182-3.239 1.588-6.29 3.826-8.639l72.41-76.008c10.806-10.914 16.585-25.972 15.855-41.313s-7.913-29.782-19.706-39.62l-87.188-72.733c-5.407-4.51-13.297-4.694-18.944-.225-4.672 3.698-6.546 9.929-5.135 15.718l16.574 67.983-74.145 23.408v171.952h53.591z"
     fill="#2698d1"
     id="path22" />
  <path
     style="fill:#004373;fill-opacity:1"
     d="m350.281 337.388-148.048-109.676-18.93 18.874.004.004c1.365 1.321 2.685 2.661 3.974 4.015.457.479.912.959 1.36 1.442.446.483.89.966 1.326 1.453.651.724 1.289 1.454 1.919 2.188.722.841 1.422 1.692 2.116 2.545.49.601.992 1.197 1.467 1.803l131.492 102.943c10.916-4.843 19.466-14.11 23.32-25.591z"
     fill="#1a82c7"
     id="path24" />
  <path
     d="m255.998 307.424 70.963 55.556c10.916-4.843 19.466-14.11 23.32-25.591l-94.283-69.846z"
     fill="#004373"
     id="path26" />
  <path
     style="fill:#004373;fill-opacity:1"
     d="m255.998 194.707-17.428-3.153-15.727 15.609c.763.926 1.637 1.784 2.646 2.531l136.983 101.299 20.853-21.889z"
     fill="#1a82c7"
     id="path28" />
  <path
     d="m362.473 310.992 20.853-21.889-127.328-94.396v37.547z"
     fill="#004373"
     id="path30" />
  <path
     d="m82.287 163.276c-20.391-5.04-34.537-6.682-35.62-6.803-8.278-.93-15.787 5.08-16.602 13.48-.754 7.775 4.834 14.759 12.505 16.234l32.903 6.327c16.41 4.074 37.258 10.546 58.031 20.525 25.393 12.199 45.237 26.884 59.484 43.947l63.01-62.28z"
     fill="#ffc12e"
     id="path32" />
</svg>
