<?xml version="1.0" encoding="UTF-8" standalone="no"?>
<svg
   xmlns:dc="http://purl.org/dc/elements/1.1/"
   xmlns:cc="http://creativecommons.org/ns#"
   xmlns:rdf="http://www.w3.org/1999/02/22-rdf-syntax-ns#"
   xmlns:svg="http://www.w3.org/2000/svg"
   xmlns="http://www.w3.org/2000/svg"
   xmlns:sodipodi="http://sodipodi.sourceforge.net/DTD/sodipodi-0.dtd"
   xmlns:inkscape="http://www.inkscape.org/namespaces/inkscape"
   inkscape:version="1.0 (4035a4fb49, 2020-05-01)"
   sodipodi:docname="logo.svg"
   id="svg8"
   version="1.1"
   width="250"
   viewBox="0 0 250 64"
   height="64"
   enable-background="new 0 0 64 64">
  <metadata
     id="metadata14">
    <rdf:RDF>
      <cc:Work
         rdf:about="">
        <dc:format>image/svg+xml</dc:format>
        <dc:type
           rdf:resource="http://purl.org/dc/dcmitype/StillImage" />
        <dc:title></dc:title>
      </cc:Work>
    </rdf:RDF>
  </metadata>
  <defs
     id="defs12" />
  <sodipodi:namedview
     inkscape:current-layer="svg8"
     inkscape:window-maximized="1"
     inkscape:window-y="-8"
     inkscape:window-x="-8"
     inkscape:cy="100.0804"
     inkscape:cx="27.590481"
     inkscape:zoom="0.70411447"
     showgrid="false"
     id="namedview10"
     inkscape:window-height="705"
     inkscape:window-width="1366"
     inkscape:pageshadow="2"
     inkscape:pageopacity="0"
     guidetolerance="10"
     gridtolerance="10"
     objecttolerance="10"
     borderopacity="1"
     bordercolor="#666666"
     pagecolor="#ffffff" />
  <g
     transform="translate(0,-80)"
     style="fill:#b3b3b3"
     id="g6"
     fill="#fff">
    <path
       style="fill:#b3b3b3"
       id="path2"
       d="M 60,9.3 H 4 c -2.1,0 -4,1.9 -4,4 V 40 c 0,2.1 1.9,4 4,4 h 25.3 v 5.3 H 18.7 c -1.6,0 -2.7,1.1 -2.7,2.7 0,1.6 1.1,2.7 2.7,2.7 h 26.7 c 1.6,0 2.7,-1.1 2.7,-2.7 0,-1.6 -1.1,-2.7 -2.7,-2.7 H 34.7 V 44 H 60 c 2.1,0 4,-1.9 4,-4 V 13.3 c 0,-2.1 -1.9,-4 -4,-4 z M 58.7,38.7 H 5.3 v -24 h 53.3 v 24 z" />
    <path
       style="fill:#b3b3b3"
       id="path4"
       d="m 17.3,36 c 2.1,0 4,-1.9 4,-4 1.3,-1.1 3.5,-2.7 5.3,-4.3 0.6,0.3 0.9,0.3 1.4,0.3 1.1,0 1.9,-0.3 2.7,-1.1 l 4.8,1.6 c 0.8,0.3 1.6,0.3 2.4,-0.3 L 42.7,25 c 0.5,0.3 1.1,0.3 1.6,0.3 2.1,0 4,-1.9 4,-4 0,-2.1 -2.1,-4 -4.3,-4 -1.9,0 -3.2,1.1 -3.7,2.7 l -4.5,2.9 -4.5,-1.3 C 30.4,20.5 29.3,20 28,20 c -1.9,0 -3.5,1.3 -3.7,2.9 -2.1,1.6 -5.1,4 -6.4,5.1 h -0.3 c -2.4,0 -4.3,1.9 -4.3,4 0,2.1 1.9,4 4,4 z" />
  </g>
  <g
     style="fill:#808080"
     transform="matrix(0.84049985,0,0,0.84049985,-80.174201,-123.93801)"
     id="g904">
    <path
       inkscape:export-ydpi="90"
       inkscape:export-xdpi="90"
       id="path3106-3-3"
       d="m 64.926573,11.371674 c -4.64812,0 -8.47496,3.82766 -8.47496,8.47707 0,4.64917 3.82684,8.4957 8.47496,8.4957 3.32314,0 6.22676,-1.96742 7.61241,-4.78246 h 23.60615 v 12.84717 h -8.08114 c -1.38667,-2.81263 -4.27232,-4.76383 -7.59373,-4.76383 -4.64822,0 -8.47501,3.8279 -8.47501,8.47707 0,4.64941 3.82679,8.47707 8.47501,8.47707 3.32141,0 6.20706,-1.96983 7.59373,-4.78222 h 8.08114 v 4.78222 h 16.049947 c 2.77903,0 5.23042,-0.46664 7.34999,-1.38781 2.11944,-0.92093 3.9004,-2.23569 5.32488,-3.93845 1.42457,-1.70277 2.47422,-3.68735 3.16878,-5.96392 0.69441,-2.27633 1.04994,-4.77569 1.04999,-7.52068 0,-5.97722 -1.55942,-10.54583 -4.66869,-13.69084 -3.1094,-3.145 -7.18748,-4.72609 -12.22495,-4.72609 H 96.145133 v 4.78246 h -23.60615 c -1.38565,-2.81505 -4.28927,-4.78246 -7.61241,-4.78246 z m 0,5.77644 c 1.52855,0 2.71874,1.17155 2.71874,2.70063 0,1.52884 -1.19019,2.71925 -2.71874,2.71925 -1.52852,0 -2.70002,-1.19041 -2.70002,-2.71925 0,-1.52908 1.1715,-2.70063 2.70002,-2.70063 z m 39.412257,1.10648 h 5.83121 c 3.89131,0 6.65459,1.04817 8.28749,3.15081 1.63284,2.10239 2.43746,5.15595 2.43746,9.15231 0,1.98121 -0.24631,3.69632 -0.74998,5.13879 -0.50369,1.44223 -1.1936,2.60217 -2.06252,3.48827 -0.86893,0.8861 -1.84951,1.53174 -2.94374,1.93161 -1.09424,0.39986 -2.25511,0.6004 -3.50617,0.6004 h -7.29375 z m -23.868567,19.16718 c 1.52857,0 2.69992,1.17178 2.69992,2.70062 0,1.52908 -1.17135,2.70086 -2.69992,2.70086 -1.52862,0 -2.69999,-1.17178 -2.69999,-2.70086 0,-1.52884 1.17137,-2.70062 2.69999,-2.70062 z"
       style="color:#000000;font-style:normal;font-variant:normal;font-weight:normal;font-stretch:normal;font-size:medium;line-height:normal;font-family:Sans;-inkscape-font-specification:Sans;text-indent:0;text-align:start;text-decoration:none;text-decoration-line:none;letter-spacing:normal;word-spacing:normal;text-transform:none;writing-mode:lr-tb;direction:ltr;baseline-shift:baseline;text-anchor:start;display:inline;overflow:visible;visibility:visible;fill:#808080;fill-opacity:1;fill-rule:nonzero;stroke:none;stroke-width:29.8365;marker:none;enable-background:accumulate"
       inkscape:connector-curvature="0" />
    <path
       inkscape:export-ydpi="90"
       inkscape:export-xdpi="90"
       inkscape:connector-curvature="0"
       id="path3108-1"
       style="font-style:normal;font-weight:normal;font-size:40px;line-height:125%;font-family:Helvetica75;-inkscape-font-specification:Helvetica75;letter-spacing:0px;word-spacing:0px;fill:#808080;fill-opacity:1;stroke:none;stroke-width:2.41905"
       d="m 241.13299,48.597524 h 7.40036 v -37.21956 h -7.40036 z m -13.35335,-10.42634 c 0,0.59074 -0.052,1.2076 -0.15669,1.85082 -0.10447,0.64322 -0.34774,1.30386 -0.73,1.98144 -0.38219,0.67782 -0.99029,1.24242 -1.82417,1.6943 -0.83401,0.45188 -1.92846,0.67757 -3.28359,0.67757 -1.38897,0 -2.49163,-0.25182 -3.3081,-0.75546 -0.81645,-0.50389 -1.22464,-1.39893 -1.22464,-2.68539 0,-1.21653 0.38199,-2.11134 1.14591,-2.68466 0.76396,-0.57307 1.84091,-0.99882 3.23103,-1.27653 0.45168,-0.0701 1.04223,-0.15724 1.77169,-0.26101 1.14725,-0.17418 2.05968,-0.34786 2.73714,-0.52179 0.67761,-0.17417 1.22473,-0.43422 1.64142,-0.78111 z m -9.69372,-8.23598 c 0.13885,-1.42434 0.62519,-2.458 1.45921,-3.10146 0.83387,-0.64323 1.98032,-0.96472 3.43925,-0.96472 1.52897,0 2.71046,0.24336 3.54434,0.73032 0.83394,0.4867 1.25085,1.45964 1.25092,2.91906 0,1.11165 -0.50396,1.85841 -1.51168,2.24086 -1.00785,0.38245 -2.62347,0.71289 -4.84693,0.99181 -0.90345,0.10401 -1.70233,0.20804 -2.39682,0.31181 -1.32002,0.17418 -2.5015,0.41728 -3.54434,0.73031 -1.04277,0.31279 -1.98957,0.76467 -2.84053,1.35539 -0.85083,0.59074 -1.52816,1.38975 -2.03171,2.39728 -0.50369,1.00754 -0.75547,2.24149 -0.75547,3.70187 0,2.64088 0.85109,4.64771 2.55343,6.02052 1.70227,1.37305 3.9085,2.05934 6.61862,2.05934 1.77176,0 3.44804,-0.26924 5.029,-0.80796 1.58091,-0.53873 2.92693,-1.38152 4.03811,-2.52791 0.0351,0.7637 0.20891,1.63213 0.52165,2.6058 h 7.50533 c -0.31277,-0.52179 -0.54732,-1.31258 -0.70374,-2.37187 -0.15642,-1.05955 -0.23462,-2.26714 -0.23455,-3.62253 v -14.02331 c 0,-1.52932 -0.34761,-2.80658 -1.04257,-3.83153 -0.69503,-1.02495 -1.60711,-1.81574 -2.73633,-2.37188 -1.12928,-0.55638 -2.37994,-0.93859 -3.75195,-1.14711 -1.37195,-0.20804 -2.80549,-0.31254 -4.30049,-0.31254 -1.59793,0 -3.11783,0.14756 -4.55982,0.44293 -1.44199,0.2956 -2.76234,0.79949 -3.96105,1.51214 -1.19863,0.71265 -2.16273,1.651 -2.8922,2.81505 -0.72947,1.16404 -1.14617,2.58015 -1.2501,4.24833 z M 202.05737,13.566964 H 194.657 v 8.07986 h -4.48187 v 4.95252 h 4.48187 v 15.8988 c 0,1.28645 0.21714,2.35518 0.65133,3.20644 0.43413,0.85103 1.04196,1.51119 1.82343,1.98048 0.7814,0.4693 1.66736,0.79103 2.65758,0.96496 0.9903,0.17417 2.11108,0.26077 3.36227,0.26077 1.84166,0 3.28364,-0.0871 4.32601,-0.26077 v -5.78588 c -0.69564,0.13788 -1.46008,0.20804 -2.29341,0.20804 -1.2512,0 -2.08516,-0.20804 -2.50178,-0.62605 -0.41671,-0.41729 -0.62506,-1.25114 -0.62506,-2.50154 v -13.3455 h 5.42025 v -4.95252 h -5.42025 z m -22.6082,35.03056 h 7.40035 v -26.9507 h -7.40035 z m 7.40035,-37.21956 h -7.40035 v 6.09939 h 7.40035 z m -13.5681,10.26886 h -7.03614 v 3.59687 h -0.10329 c -0.86839,-1.52907 -1.96289,-2.63264 -3.28344,-3.31046 -1.32068,-0.67758 -2.90127,-1.01648 -4.74197,-1.01648 -1.84166,0 -3.48357,0.35632 -4.92556,1.06898 -1.44197,0.71265 -2.65817,1.69454 -3.64853,2.94543 -0.99031,1.25113 -1.73734,2.67595 -2.24089,4.27469 -0.50369,1.59885 -0.75546,3.28445 -0.75546,5.05664 0,1.91105 0.22569,3.68324 0.67752,5.31658 0.45171,1.63334 1.1467,3.06687 2.085,4.30083 0.93842,1.23395 2.14587,2.19818 3.62236,2.89293 1.47641,0.69451 3.18748,1.04189 5.13314,1.04189 1.66777,0 3.23995,-0.35608 4.71644,-1.06825 1.47642,-0.71217 2.59692,-1.74583 3.36139,-3.10122 h 0.10329 v 3.54438 c 0,2.05111 -0.49491,3.67623 -1.48466,4.87512 -0.98983,1.19888 -2.47503,1.79831 -4.45562,1.79831 -1.42511,0 -2.62401,-0.2869 -3.59683,-0.86045 -0.9728,-0.5738 -1.61508,-1.52085 -1.92682,-2.84142 h -7.34953 c 0.0704,1.45941 0.46973,2.74514 1.19927,3.85718 0.72946,1.11203 1.65884,2.01555 2.78807,2.71078 1.12921,0.69499 2.38005,1.21654 3.75269,1.5644 1.3725,0.3481 2.75322,0.52203 4.14231,0.52203 2.91896,0 5.32529,-0.38245 7.21904,-1.14711 1.89365,-0.76467 3.32687,-1.75526 4.29966,-2.97156 0.97287,-1.21654 1.62413,-2.48508 1.95392,-3.80541 0.32971,-1.32055 0.49457,-2.65828 0.49464,-4.01367 z m -13.34073,20.59055 c -1.07723,0 -2.00687,-0.23466 -2.78873,-0.70323 -0.782,-0.46881 -1.40761,-1.08542 -1.87679,-1.85008 -0.46917,-0.76466 -0.80794,-1.61641 -1.01629,-2.555 -0.20828,-0.93859 -0.31256,-1.92919 -0.31256,-2.97155 0,-2.18925 0.50396,-4.01355 1.51176,-5.47344 1.00784,-1.4599 2.50204,-2.18972 4.48261,-2.18972 1.14624,0 2.12748,0.21771 2.94396,0.65217 0.81645,0.43495 1.46797,1.03415 1.95464,1.79832 0.48666,0.76418 0.84265,1.64167 1.06803,2.63226 0.22521,0.9906 0.33796,2.0591 0.33796,3.20548 0,2.05111 -0.54711,3.80637 -1.64134,5.26579 -1.09426,1.45917 -2.64862,2.189 -4.66325,2.189 z m -25.78743,6.36015 h 7.40035 v -26.9507 h -7.40035 z m 7.40035,-37.21956 h -7.40035 v 6.09939 h 7.40035 z m 202.85835,36.88138 c -1.80681,0 -3.353,-0.32995 -4.63857,-0.99012 -1.28563,-0.6604 -2.30192,-1.5552 -3.04889,-2.68466 -0.74703,-1.12945 -1.28536,-2.41541 -1.61508,-3.85765 -0.32979,-1.44248 -0.49465,-3.01534 -0.49465,-4.7186 0,-1.6672 0.18239,-3.23958 0.54707,-4.71689 0.36481,-1.47741 0.93815,-2.78926 1.72008,-3.93565 0.78204,-1.14663 1.79825,-2.05014 3.0489,-2.71102 1.25058,-0.66065 2.74428,-0.99109 4.48114,-0.99109 1.73772,0 3.24915,0.33891 4.53428,1.01672 1.28506,0.67758 2.33606,1.60746 3.15307,2.7894 0.81698,1.18219 1.4163,2.51146 1.79803,3.98839 0.38165,1.47683 0.57256,2.99696 0.57256,4.56014 0,1.70326 -0.19981,3.29329 -0.59884,4.77013 -0.39921,1.47683 -1.01575,2.77125 -1.84962,3.88329 -0.83397,1.11204 -1.88497,1.98967 -3.15314,2.6329 -1.26806,0.64322 -2.75359,0.96471 -4.45634,0.96471 z m -9.84966,-25.70005 h -1.98011 v 36.38595 h 1.98011 v -15.16888 h 0.10499 c 0.76444,2.08521 1.99787,3.64018 3.70015,4.66514 1.70233,1.02518 3.71708,1.53754 6.04447,1.53754 3.96127,0 6.95822,-1.26831 8.9908,-3.80516 2.03253,-2.53686 3.0489,-5.92546 3.0489,-10.16557 0,-1.94612 -0.24336,-3.76161 -0.73002,-5.44697 -0.48674,-1.68544 -1.23376,-3.17969 -2.24094,-4.48307 -1.00731,-1.30339 -2.26666,-2.32011 -3.77809,-3.04969 -1.51147,-0.72958 -3.27498,-1.09462 -5.29065,-1.09462 -1.38902,0 -2.64811,0.21771 -3.77727,0.65169 -1.12928,0.43422 -2.09356,0.99012 -2.89309,1.66794 -0.79942,0.67757 -1.45101,1.40764 -1.95464,2.18971 -0.50362,0.78208 -0.87683,1.53803 -1.11962,2.26786 h -0.10499 z m -14.92325,0 h -1.98004 v 26.79466 h 1.98004 v -14.64853 c 0.10426,-1.94613 0.37328,-3.44908 0.80803,-4.50921 0.43473,-1.06002 1.17317,-2.12851 2.21549,-3.20499 0.93728,-0.93835 1.97058,-1.61641 3.09979,-2.0337 1.12924,-0.41728 2.23244,-0.62604 3.30967,-0.62604 0.10499,0 0.27892,0 0.52171,0 0.2078,0.0339 0.36417,0.0533 0.46911,0.0533 v -1.98047 c -2.53616,0 -4.75115,0.58202 -6.64484,1.74583 -1.89372,1.16404 -3.10134,2.61498 -3.623,4.35332 h -0.15603 z m -31.222,13.39822 c 0,1.91105 0.27778,3.71808 0.8334,5.42061 0.55564,1.70276 1.35459,3.19725 2.39682,4.48321 1.04232,1.28597 2.33665,2.29375 3.88312,3.02333 1.54639,0.72958 3.27492,1.09438 5.18561,1.09438 1.91062,0 3.63039,-0.3648 5.15942,-1.09438 1.52891,-0.72958 2.83176,-1.74631 3.90843,-3.04969 1.07681,-1.30338 1.88448,-2.79763 2.42316,-4.48298 0.53856,-1.68535 0.80789,-3.48343 0.80789,-5.39448 0,-1.91225 -0.26933,-3.71977 -0.80789,-5.42253 -0.53868,-1.70263 -1.33791,-3.19711 -2.39761,-4.48308 -1.05979,-1.28572 -2.36266,-2.29374 -3.90851,-3.02332 -1.54592,-0.72958 -3.27427,-1.09462 -5.18489,-1.09462 -1.91069,0 -3.63045,0.36504 -5.1594,1.09462 -1.52892,0.72958 -2.83204,1.7376 -3.90933,3.02332 -1.0772,1.28597 -1.88488,2.78045 -2.42302,4.48308 -0.53806,1.70276 -0.8072,3.51028 -0.8072,5.42253 z m 1.98012,0 c 0,-1.63334 0.22591,-3.18878 0.6776,-4.66609 0.45162,-1.47741 1.12044,-2.78926 2.00632,-3.93565 0.88581,-1.14663 1.97161,-2.05014 3.25724,-2.71102 1.28556,-0.66065 2.74476,-0.99109 4.37767,-0.99109 1.63283,0 3.09205,0.33044 4.37767,0.99109 1.28559,0.66088 2.37138,1.56439 3.25726,2.71102 0.8858,1.14639 1.55469,2.45824 2.00638,3.93565 0.45164,1.47731 0.67745,3.03275 0.67745,4.66609 0,1.6331 -0.22594,3.18831 -0.67745,4.66514 -0.45169,1.47682 -1.12058,2.78868 -2.00638,3.93579 -0.88588,1.14687 -1.97167,2.05038 -3.25726,2.71078 -1.28562,0.66017 -2.74484,0.99012 -4.37767,0.99012 -1.63291,0 -3.09211,-0.32995 -4.37767,-0.99012 -1.28563,-0.6604 -2.37143,-1.56391 -3.25724,-2.71078 -0.88588,-1.14711 -1.5547,-2.45897 -2.00632,-3.93579 -0.45169,-1.47683 -0.6776,-3.03204 -0.6776,-4.66514 z m -5.7399,-12.72065 c -0.0351,-0.48671 -0.25212,-1.33798 -0.65133,-2.55403 -0.39921,-1.21582 -1.11996,-2.55379 -2.16219,-4.01369 -1.04224,-1.4599 -2.57094,-2.7282 -4.58603,-3.80516 -2.01511,-1.0772 -4.53411,-1.61568 -7.55699,-1.61568 -2.71012,0 -5.16847,0.49518 -7.37491,1.48505 -2.2065,0.99012 -4.08268,2.37164 -5.6286,4.14431 -1.54593,1.77268 -2.71837,3.84919 -3.51725,6.22954 -0.7989,2.38058 -1.19839,4.92615 -1.19839,7.63703 0,2.71078 0.39949,5.25635 1.19839,7.63693 0.79888,2.38034 1.97132,4.45661 3.51725,6.22881 1.54592,1.77219 3.4221,3.15371 5.6286,4.14431 2.20644,0.99059 4.66479,1.48578 7.37491,1.48578 2.01455,0 3.92519,-0.38246 5.73193,-1.14711 1.80675,-0.76467 3.41359,-1.84187 4.82072,-3.23162 1.407,-1.38998 2.54487,-3.02331 3.41386,-4.89977 0.86887,-1.8767 1.4072,-3.91015 1.61509,-6.10036 h -2.29181 c -0.10508,1.7035 -0.51348,3.3632 -1.22546,4.97937 -0.71203,1.61641 -1.67613,3.05865 -2.89227,4.32719 -1.21614,1.26855 -2.60592,2.26762 -4.16933,2.9972 -1.56341,0.72959 -3.23097,1.09438 -5.00273,1.09438 -2.36237,0 -4.50789,-0.45164 -6.43654,-1.35539 -1.92873,-0.90352 -3.56184,-2.16311 -4.89941,-3.77904 -1.33751,-1.61568 -2.35387,-3.48367 -3.04889,-5.60373 -0.69496,-2.12004 -1.0425,-4.37896 -1.0425,-6.77695 0,-2.3981 0.34754,-4.65701 1.0425,-6.77707 0.69502,-2.12004 1.71138,-3.98804 3.04889,-5.60372 1.33757,-1.61568 2.97068,-2.87552 4.89941,-3.77903 1.92865,-0.90352 4.07417,-1.35539 6.43654,-1.35539 3.19572,0 5.98371,0.90351 8.36412,2.71078 2.38034,1.80727 3.81334,4.23962 4.299,7.29706 z" />
  </g>
  <g
     style="fill:#ffffff"
     id="g942"
     transform="matrix(0.9914766,0,0,0.9914766,-39.242005,-103.36607)">
    <path
       inkscape:connector-curvature="0"
       style="color:#000000;font-style:normal;font-variant:normal;font-weight:normal;font-stretch:normal;font-size:medium;line-height:normal;font-family:Sans;-inkscape-font-specification:Sans;text-indent:0;text-align:start;text-decoration:none;text-decoration-line:none;letter-spacing:normal;word-spacing:normal;text-transform:none;writing-mode:lr-tb;direction:ltr;baseline-shift:baseline;text-anchor:start;display:inline;overflow:visible;visibility:visible;fill:#ffffff;fill-opacity:1;fill-rule:nonzero;stroke:none;stroke-width:25.0776;marker:none;enable-background:accumulate"
       d="m 46.702556,118.60582 c -3.906744,0 -7.123203,3.21715 -7.123203,7.12498 0,3.90762 3.216459,7.14063 7.123203,7.14063 2.793098,0 5.233591,-1.65362 6.398229,-4.01966 h 19.840966 v 10.79805 h -6.792197 c -1.165496,-2.36402 -3.590885,-4.004 -6.382529,-4.004 -3.906828,0 -7.123245,3.21735 -7.123245,7.12498 0,3.90782 3.216417,7.12497 7.123245,7.12497 2.791644,0 5.217033,-1.65564 6.382529,-4.01945 h 6.792197 v 4.01945 h 13.489978 c 2.335774,0 4.396167,-0.39221 6.177665,-1.16645 1.781389,-0.77404 3.278286,-1.8791 4.475561,-3.31027 1.197351,-1.43118 2.079582,-3.09922 2.663359,-5.01267 0.583656,-1.91326 0.882476,-4.01397 0.882516,-6.32113 0,-5.02386 -1.310692,-8.86377 -3.924033,-11.50715 -2.61345,-2.64337 -6.041076,-3.97228 -10.275068,-3.97228 H 72.941751 v 4.01966 H 53.100785 c -1.164638,-2.36605 -3.605131,-4.01966 -6.398229,-4.01966 z m 0,4.8551 c 1.284746,0 2.2851,0.98468 2.2851,2.26988 0,1.28499 -1.000354,2.28553 -2.2851,2.28553 -1.284721,0 -2.269367,-1.00054 -2.269367,-2.28553 0,-1.2852 0.984646,-2.26988 2.269367,-2.26988 z m 33.125996,0.92999 h 4.901131 c 3.270645,0 5.593182,0.88099 6.965634,2.64826 1.372402,1.76706 2.048685,4.33357 2.048685,7.69251 0,1.66521 -0.207024,3.10676 -0.630358,4.31916 -0.423352,1.21219 -1.003221,2.18712 -1.733548,2.93189 -0.730336,0.74476 -1.554513,1.28742 -2.474213,1.62351 -0.919709,0.33609 -1.89542,0.50464 -2.946935,0.50464 h -6.130396 z m -20.061527,16.11002 c 1.284763,0 2.269282,0.98488 2.269282,2.26987 0,1.28519 -0.984519,2.27007 -2.269282,2.27007 -1.284805,0 -2.269341,-0.98488 -2.269341,-2.27007 0,-1.28499 0.984536,-2.26987 2.269341,-2.26987 z"
       id="path3106-3-3-7"
       inkscape:export-xdpi="90"
       inkscape:export-ydpi="90" />
    <path
       id="path881"
       d="m 231.38617,128.57851 c -0.0295,-0.40908 -0.2119,-1.12457 -0.54744,-2.14666 -0.33554,-1.0219 -0.94133,-2.14646 -1.81732,-3.37351 -0.876,-1.22704 -2.16087,-2.29305 -3.85456,-3.19823 -1.6937,-0.90539 -3.81092,-1.35798 -6.35165,-1.35798 -2.27785,0 -4.34409,0.4162 -6.19861,1.24818 -1.85456,0.8322 -3.43149,1.99337 -4.73083,3.48329 -1.29936,1.48994 -2.28479,3.23525 -2.95625,5.23593 -0.67148,2.00088 -1.00725,4.14043 -1.00725,6.41892 0,2.27841 0.33577,4.41797 1.00725,6.41884 0.67146,2.00068 1.65689,3.74578 2.95625,5.23532 1.29934,1.48952 2.87627,2.65069 4.73083,3.48329 1.85452,0.83259 3.92076,1.2488 6.19861,1.2488 1.69323,0 3.29913,-0.32146 4.81769,-0.96415 1.51857,-0.6427 2.86912,-1.54809 4.05181,-2.71618 1.18259,-1.16827 2.13897,-2.54109 2.86935,-4.11825 0.73029,-1.57737 1.18275,-3.28648 1.35749,-5.12735 h -1.92627 c -0.0883,1.43179 -0.43158,2.82677 -1.03,4.18516 -0.59846,1.35859 -1.40879,2.57079 -2.43095,3.637 -1.02217,1.06622 -2.19028,1.90593 -3.50432,2.51915 -1.31405,0.61322 -2.71563,0.91982 -4.2048,0.91982 -1.98557,0 -3.78888,-0.3796 -5.40991,-1.1392 -1.62109,-0.75941 -2.99372,-1.8181 -4.11795,-3.17629 -1.12418,-1.35798 -1.97843,-2.92802 -2.56259,-4.70993 -0.58412,-1.78189 -0.87622,-3.68052 -0.87622,-5.69603 0,-2.0156 0.2921,-3.91421 0.87622,-5.69612 0.58416,-1.7819 1.43841,-3.35195 2.56259,-4.70993 1.12423,-1.35798 2.49686,-2.41687 4.11795,-3.17627 1.62103,-0.75941 3.42434,-1.13921 5.40991,-1.13921 2.68601,0 5.02931,0.7594 7.03005,2.27841 2.00067,1.51901 3.20511,3.5634 3.6133,6.13318 z"
       style="font-style:normal;font-weight:normal;font-size:40px;line-height:125%;font-family:Helvetica75;-inkscape-font-specification:Helvetica75;letter-spacing:0px;word-spacing:0px;fill:#ffffff;fill-opacity:1;stroke:none;stroke-width:2.03321" />
    <path
       id="path875"
       d="m 260.78835,128.00901 h -1.66422 v 22.52091 h 1.66422 v -12.31209 c 0.0876,-1.63572 0.31375,-2.89895 0.67915,-3.78999 0.36539,-0.89094 0.98605,-1.78901 1.86212,-2.69379 0.78779,-0.78868 1.65627,-1.35859 2.60538,-1.70932 0.94912,-0.35073 1.87636,-0.52619 2.78177,-0.52619 0.0883,0 0.23443,0 0.4385,0 0.17466,0.0285 0.30608,0.0448 0.39429,0.0448 v -1.66459 c -2.13165,0 -3.99334,0.48919 -5.58499,1.46737 -1.59167,0.97838 -2.60668,2.19789 -3.04513,3.65897 h -0.13114 z"
       style="font-style:normal;font-weight:normal;font-size:40px;line-height:125%;font-family:Helvetica75;-inkscape-font-specification:Helvetica75;letter-spacing:0px;word-spacing:0px;fill:#ffffff;fill-opacity:1;stroke:none;stroke-width:2.03321" />
    <path
       d="m 244.88281,127.48438 c -1.60593,0 -3.05085,0.30671 -4.33593,0.91992 -1.28506,0.61321 -2.3797,1.46036 -3.28516,2.54101 -0.90539,1.08086 -1.5848,2.33652 -2.03711,3.76758 -0.45224,1.43117 -0.67773,2.94939 -0.67773,4.55664 0,1.60623 0.23221,3.12566 0.69921,4.55664 0.46702,1.43117 1.13963,2.68674 2.01563,3.76758 0.87607,1.08086 1.96386,1.92781 3.26367,2.54102 1.29974,0.61321 2.75149,0.91992 4.35742,0.91992 1.60588,0 3.05274,-0.30671 4.33789,-0.91992 1.28504,-0.61321 2.38022,-1.46701 3.28516,-2.5625 0.90506,-1.09549 1.5824,-2.35104 2.03516,-3.76758 0.45266,-1.41653 0.67968,-2.92893 0.67968,-4.53516 0,-1.60725 -0.22702,-3.12547 -0.67968,-4.55664 -0.45276,-1.43106 -1.12301,-2.68672 -2.01368,-3.76758 -0.89076,-1.08065 -1.98586,-1.9278 -3.28515,-2.54101 -1.29934,-0.61321 -2.7535,-0.91992 -4.35938,-0.91992 z m 0,1.44531 c 1.3724,0 2.59913,0.27676 3.67969,0.83203 1.08054,0.55547 1.9937,1.31556 2.73828,2.2793 0.74452,0.96354 1.30591,2.06487 1.68555,3.30664 0.37961,1.24168 0.57031,2.54904 0.57031,3.92187 0,1.37262 -0.19081,2.68061 -0.57031,3.92188 -0.37964,1.24127 -0.94103,2.34444 -1.68555,3.30859 -0.74458,0.96394 -1.65774,1.72227 -2.73828,2.27734 -1.08056,0.55487 -2.30729,0.83204 -3.67969,0.83204 -1.37246,0 -2.59916,-0.27717 -3.67969,-0.83204 -1.08056,-0.55507 -1.99179,-1.3134 -2.73632,-2.27734 -0.74458,-0.96415 -1.30791,-2.06732 -1.6875,-3.30859 -0.37964,-1.24127 -0.56836,-2.54926 -0.56836,-3.92188 0,-1.37283 0.18872,-2.68019 0.56836,-3.92187 0.37959,-1.24177 0.94292,-2.3431 1.6875,-3.30664 0.74453,-0.96374 1.65575,-1.72383 2.73632,-2.2793 1.08053,-0.55527 2.30723,-0.83203 3.67969,-0.83203 z"
       style="font-style:normal;font-weight:normal;font-size:40px;line-height:125%;font-family:Helvetica75;-inkscape-font-specification:Helvetica75;letter-spacing:0px;word-spacing:0px;fill:#ffffff;fill-opacity:1;stroke:none;stroke-width:2.03321"
       id="path877" />
    <path
       d="m 281.60938,127.48438 c -1.16747,0 -2.22477,0.18211 -3.17383,0.54687 -0.94916,0.36496 -1.75963,0.83263 -2.43164,1.40234 -0.67191,0.5695 -1.21928,1.18252 -1.64258,1.83985 -0.42329,0.65734 -0.73735,1.29283 -0.94141,1.90625 h -0.0879 v -5.16992 h -1.66406 v 30.58203 h 1.66406 v -12.75 h 0.0879 c 0.64251,1.75262 1.67862,3.06039 3.10938,3.92187 1.43081,0.86166 3.12391,1.29102 5.08008,1.29102 3.32945,0 5.84825,-1.06505 7.55664,-3.19727 1.70834,-2.13223 2.5625,-4.98111 2.5625,-8.54492 0,-1.63571 -0.20425,-3.16159 -0.61329,-4.57812 -0.4091,-1.41662 -1.03627,-2.67209 -1.88281,-3.76758 -0.84664,-1.0955 -1.90542,-1.94929 -3.17578,-2.5625 -1.27039,-0.61321 -2.75309,-0.91993 -4.44726,-0.91992 z m 0,1.44531 c 1.46055,0 2.73234,0.28381 3.8125,0.85351 1.0801,0.56951 1.96173,1.35033 2.64843,2.34375 0.68667,0.99363 1.19088,2.11216 1.51172,3.35352 0.32078,1.24127 0.48242,2.51818 0.48242,3.83203 0,1.43159 -0.16851,2.76848 -0.5039,4.00977 -0.33553,1.24127 -0.85382,2.329 -1.55469,3.26367 -0.70095,0.93467 -1.58449,1.67226 -2.65039,2.21289 -1.0658,0.54063 -2.31494,0.81054 -3.74609,0.81055 -1.51862,0 -2.81791,-0.27717 -3.89844,-0.83204 -1.08057,-0.55507 -1.93467,-1.30655 -2.5625,-2.25586 -0.62788,-0.9493 -1.08029,-2.02998 -1.35742,-3.24218 -0.27719,-1.21241 -0.41602,-2.53521 -0.41602,-3.9668 0,-1.40128 0.15442,-2.72316 0.46094,-3.96484 0.30662,-1.24177 0.7881,-2.3431 1.44531,-3.30664 0.65731,-0.96374 1.51133,-1.72383 2.5625,-2.2793 1.05112,-0.55527 2.3058,-0.83203 3.76563,-0.83203 z"
       style="font-style:normal;font-weight:normal;font-size:40px;line-height:125%;font-family:Helvetica75;-inkscape-font-specification:Helvetica75;letter-spacing:0px;word-spacing:0px;fill:#ffffff;fill-opacity:1;stroke:none;stroke-width:2.03321"
       id="path873" />
    <path
       id="path869"
       d="m 111.10757,118.61111 h -6.21999 v 5.12653 h 6.21999 z"
       style="font-style:normal;font-weight:normal;font-size:40px;line-height:125%;font-family:Helvetica75;-inkscape-font-specification:Helvetica75;letter-spacing:0px;word-spacing:0px;fill:#ffffff;fill-opacity:1;stroke:none;stroke-width:2.03321" />
    <path
       id="path867"
       d="m 104.88758,149.89414 h 6.21999 v -22.65206 h -6.21999 z"
       style="font-style:normal;font-weight:normal;font-size:40px;line-height:125%;font-family:Helvetica75;-inkscape-font-specification:Helvetica75;letter-spacing:0px;word-spacing:0px;fill:#ffffff;fill-opacity:1;stroke:none;stroke-width:2.03321" />
    <path
       d="m 125.0293,126.62891 c -1.54791,0 -2.92864,0.29944 -4.14063,0.89843 -1.21198,0.59898 -2.234,1.42324 -3.0664,2.47461 -0.83235,1.05157 -1.45958,2.25001 -1.88282,3.59375 -0.42335,1.34383 -0.63476,2.76048 -0.63476,4.25 0,1.60624 0.1886,3.09592 0.56836,4.46875 0.37967,1.37282 0.96331,2.5781 1.75195,3.61524 0.78874,1.03714 1.80393,1.8477 3.04492,2.43164 1.24092,0.58374 2.67914,0.875 4.31446,0.875 1.40175,0 2.72385,-0.29986 3.96484,-0.89844 1.24093,-0.59857 2.18168,-1.46627 2.82422,-2.60547 h 0.0879 v 2.97852 c 0,1.72396 -0.41617,3.08998 -1.24805,4.09765 -0.83195,1.00766 -2.08141,1.51172 -3.74609,1.51172 -1.19781,0 -2.20383,-0.24254 -3.02149,-0.72461 -0.81763,-0.48228 -1.35907,-1.27679 -1.62109,-2.38672 h -6.17578 c 0.0592,1.22663 0.39463,2.30752 1.00781,3.24219 0.61311,0.93466 1.39463,1.693 2.34375,2.27735 0.9491,0.58413 1.99863,1.02208 3.15234,1.31445 1.15358,0.29258 2.3149,0.43945 3.48243,0.43945 2.45338,0 4.47666,-0.32214 6.06836,-0.96484 1.59161,-0.6427 2.79565,-1.4738 3.61328,-2.4961 0.8177,-1.0225 1.3654,-2.08947 1.64258,-3.19921 0.27711,-1.10992 0.41595,-2.23384 0.41601,-3.37305 v -21.20703 h -5.91406 v 3.02343 h -0.0879 c -0.72988,-1.28517 -1.64985,-2.21349 -2.75977,-2.7832 -1.11003,-0.56951 -2.43726,-0.85351 -3.98437,-0.85351 z m 1.5332,4.6875 c 0.96341,0 1.78836,0.18366 2.47461,0.54882 0.68623,0.36557 1.23353,0.86943 1.64258,1.51172 0.40904,0.64229 0.70705,1.37835 0.89648,2.21094 0.18929,0.8326 0.28516,1.73177 0.28516,2.69531 0,1.72395 -0.46116,3.19914 -1.38086,4.42578 -0.91973,1.22643 -2.22468,1.83985 -3.91797,1.83985 -0.90541,0 -1.6866,-0.19797 -2.34375,-0.5918 -0.65727,-0.39403 -1.18379,-0.91199 -1.57813,-1.55469 -0.39433,-0.6427 -0.6784,-1.35759 -0.85351,-2.14648 -0.17506,-0.78888 -0.26367,-1.62195 -0.26367,-2.49805 0,-1.84007 0.42443,-3.37452 1.27148,-4.60156 0.84709,-1.22705 2.10291,-1.83984 3.76758,-1.83984 z"
       style="font-style:normal;font-weight:normal;font-size:40px;line-height:125%;font-family:Helvetica75;-inkscape-font-specification:Helvetica75;letter-spacing:0px;word-spacing:0px;fill:#ffffff;fill-opacity:1;stroke:none;stroke-width:2.03321"
       id="path863" />
    <path
       id="path861"
       d="m 149.17877,118.61111 h -6.21999 v 5.12653 h 6.21999 z"
       style="font-style:normal;font-weight:normal;font-size:40px;line-height:125%;font-family:Helvetica75;-inkscape-font-specification:Helvetica75;letter-spacing:0px;word-spacing:0px;fill:#ffffff;fill-opacity:1;stroke:none;stroke-width:2.03321" />
    <path
       id="path859"
       d="m 142.95878,149.89414 h 6.21999 v -22.65206 h -6.21999 z"
       style="font-style:normal;font-weight:normal;font-size:40px;line-height:125%;font-family:Helvetica75;-inkscape-font-specification:Helvetica75;letter-spacing:0px;word-spacing:0px;fill:#ffffff;fill-opacity:1;stroke:none;stroke-width:2.03321" />
    <path
       id="path857"
       d="m 161.96097,120.45096 h -6.22001 v 6.79112 h -3.76701 v 4.16259 h 3.76701 v 13.36294 c 0,1.08126 0.18251,1.97953 0.54744,2.69502 0.36489,0.71529 0.87577,1.27015 1.5326,1.66459 0.65676,0.39445 1.40141,0.66486 2.23369,0.81105 0.83235,0.14639 1.77436,0.21918 2.82599,0.21918 1.54791,0 2.7599,-0.0732 3.63601,-0.21918 v -4.86303 c -0.58469,0.11588 -1.2272,0.17485 -1.92761,0.17485 -1.05163,0 -1.75258,-0.17485 -2.10275,-0.52619 -0.35024,-0.35073 -0.52536,-1.05158 -0.52536,-2.10254 v -11.2169 h 4.55572 v -4.16259 h -4.55572 z"
       style="font-style:normal;font-weight:normal;font-size:40px;line-height:125%;font-family:Helvetica75;-inkscape-font-specification:Helvetica75;letter-spacing:0px;word-spacing:0px;fill:#ffffff;fill-opacity:1;stroke:none;stroke-width:2.03321" />
    <path
       d="m 179.85547,126.62891 c -1.34306,0 -2.62004,0.12283 -3.83203,0.37109 -1.212,0.24845 -2.32061,0.6725 -3.32813,1.27148 -1.00744,0.59899 -1.81852,1.38881 -2.43164,2.36719 -0.61312,0.97838 -0.96342,2.16821 -1.05078,3.57031 h 6.2207 c 0.11671,-1.19715 0.52558,-2.06659 1.22657,-2.60742 0.70087,-0.54064 1.66439,-0.81054 2.89062,-0.81054 1.2851,0 2.27764,0.20399 2.97852,0.61328 0.70092,0.40908 1.05073,1.22648 1.05078,2.45312 0,0.93435 -0.42254,1.56332 -1.26953,1.88477 -0.8471,0.32145 -2.2054,0.59955 -4.07422,0.83398 -0.75935,0.0874 -1.43191,0.1745 -2.01563,0.26172 -1.10948,0.1464 -2.102,0.35018 -2.97851,0.61328 -0.87645,0.2629 -1.67148,0.64217 -2.38672,1.13867 -0.71512,0.49652 -1.28575,1.1688 -1.70899,2.01563 -0.42335,0.84684 -0.63476,1.88389 -0.63476,3.11133 0,2.21966 0.71566,3.90669 2.14648,5.06054 1.43076,1.15405 3.28464,1.73047 5.5625,1.73047 1.48916,0 2.89972,-0.2269 4.22852,-0.67969 1.32875,-0.4528 2.45863,-1.16146 3.39258,-2.125 0.0295,0.64189 0.17659,1.37304 0.43945,2.19141 h 6.30859 c -0.26289,-0.43856 -0.46032,-1.10381 -0.59179,-1.99414 -0.13147,-0.89056 -0.19732,-1.90572 -0.19727,-3.04492 v -11.78711 c 0,-1.28539 -0.29283,-2.35728 -0.87695,-3.21875 -0.58417,-0.86147 -1.34972,-1.5267 -2.29883,-1.99414 -0.94916,-0.46763 -2.00113,-0.78959 -3.1543,-0.96485 -1.15313,-0.17485 -2.35868,-0.26171 -3.61523,-0.26171 z m 3.72461,12.17968 v 2.32227 c 0,0.49652 -0.0429,1.01406 -0.13086,1.55469 -0.0878,0.54062 -0.29199,1.0965 -0.61328,1.66601 -0.32123,0.56971 -0.83234,1.04402 -1.53321,1.42383 -0.70099,0.3798 -1.62077,0.57031 -2.75976,0.57031 -1.16743,0 -2.095,-0.21145 -2.78125,-0.63476 -0.68622,-0.42352 -1.0293,-1.17654 -1.0293,-2.25782 0,-1.02249 0.32081,-1.77397 0.96289,-2.25585 0.64211,-0.48166 1.5484,-0.8408 2.7168,-1.07422 0.37964,-0.0589 0.87516,-0.13153 1.48828,-0.21875 0.96426,-0.1464 1.73138,-0.29131 2.30078,-0.4375 0.56953,-0.14639 1.02869,-0.36665 1.37891,-0.65821 z"
       style="font-style:normal;font-weight:normal;font-size:40px;line-height:125%;font-family:Helvetica75;-inkscape-font-specification:Helvetica75;letter-spacing:0px;word-spacing:0px;fill:#ffffff;fill-opacity:1;stroke:none;stroke-width:2.03321"
       id="path855" />
    <path
       id="path3108-1-1"
       d="m 194.80402,149.89414 h 6.22 v -31.28303 h -6.22 z"
       style="font-style:normal;font-weight:normal;font-size:40px;line-height:125%;font-family:Helvetica75;-inkscape-font-specification:Helvetica75;letter-spacing:0px;word-spacing:0px;fill:#ffffff;fill-opacity:1;stroke:none;stroke-width:2.03321" />
  </g>
  <g
     transform="matrix(1.4326444,0,0,1.4326444,-457.41287,-160.34263)"
     id="g1024">
    <path
       inkscape:export-ydpi="90"
       inkscape:export-xdpi="90"
       id="path998"
       d="m 46.702556,118.60582 c -3.906744,0 -7.123203,3.21715 -7.123203,7.12498 0,3.90762 3.216459,7.14063 7.123203,7.14063 2.793098,0 5.233591,-1.65362 6.398229,-4.01966 h 19.840966 v 10.79805 h -6.792197 c -1.165496,-2.36402 -3.590885,-4.004 -6.382529,-4.004 -3.906828,0 -7.123245,3.21735 -7.123245,7.12498 0,3.90782 3.216417,7.12497 7.123245,7.12497 2.791644,0 5.217033,-1.65564 6.382529,-4.01945 h 6.792197 v 4.01945 h 13.489978 c 2.335774,0 4.396167,-0.39221 6.177665,-1.16645 1.781389,-0.77404 3.278286,-1.8791 4.475561,-3.31027 1.197351,-1.43118 2.079582,-3.09922 2.663359,-5.01267 0.583656,-1.91326 0.882476,-4.01397 0.882516,-6.32113 0,-5.02386 -1.310692,-8.86377 -3.924033,-11.50715 -2.61345,-2.64337 -6.041076,-3.97228 -10.275068,-3.97228 H 72.941751 v 4.01966 H 53.100785 c -1.164638,-2.36605 -3.605131,-4.01966 -6.398229,-4.01966 z m 0,4.8551 c 1.284746,0 2.2851,0.98468 2.2851,2.26988 0,1.28499 -1.000354,2.28553 -2.2851,2.28553 -1.284721,0 -2.269367,-1.00054 -2.269367,-2.28553 0,-1.2852 0.984646,-2.26988 2.269367,-2.26988 z m 33.125996,0.92999 h 4.901131 c 3.270645,0 5.593182,0.88099 6.965634,2.64826 1.372402,1.76706 2.048685,4.33357 2.048685,7.69251 0,1.66521 -0.207024,3.10676 -0.630358,4.31916 -0.423352,1.21219 -1.003221,2.18712 -1.733548,2.93189 -0.730336,0.74476 -1.554513,1.28742 -2.474213,1.62351 -0.919709,0.33609 -1.89542,0.50464 -2.946935,0.50464 h -6.130396 z m -20.061527,16.11002 c 1.284763,0 2.269282,0.98488 2.269282,2.26987 0,1.28519 -0.984519,2.27007 -2.269282,2.27007 -1.284805,0 -2.269341,-0.98488 -2.269341,-2.27007 0,-1.28499 0.984536,-2.26987 2.269341,-2.26987 z"
       style="color:#000000;font-style:normal;font-variant:normal;font-weight:normal;font-stretch:normal;font-size:medium;line-height:normal;font-family:Sans;-inkscape-font-specification:Sans;text-indent:0;text-align:start;text-decoration:none;text-decoration-line:none;letter-spacing:normal;word-spacing:normal;text-transform:none;writing-mode:lr-tb;direction:ltr;baseline-shift:baseline;text-anchor:start;display:inline;overflow:visible;visibility:visible;fill:#333333;fill-opacity:1;fill-rule:nonzero;stroke:none;stroke-width:25.0776;marker:none;enable-background:accumulate"
       inkscape:connector-curvature="0" />
    <path
       style="font-style:normal;font-weight:normal;font-size:40px;line-height:125%;font-family:Helvetica75;-inkscape-font-specification:Helvetica75;letter-spacing:0px;word-spacing:0px;fill:#333333;fill-opacity:1;stroke:none;stroke-width:2.03321"
       d="m 231.38617,128.57851 c -0.0295,-0.40908 -0.2119,-1.12457 -0.54744,-2.14666 -0.33554,-1.0219 -0.94133,-2.14646 -1.81732,-3.37351 -0.876,-1.22704 -2.16087,-2.29305 -3.85456,-3.19823 -1.6937,-0.90539 -3.81092,-1.35798 -6.35165,-1.35798 -2.27785,0 -4.34409,0.4162 -6.19861,1.24818 -1.85456,0.8322 -3.43149,1.99337 -4.73083,3.48329 -1.29936,1.48994 -2.28479,3.23525 -2.95625,5.23593 -0.67148,2.00088 -1.00725,4.14043 -1.00725,6.41892 0,2.27841 0.33577,4.41797 1.00725,6.41884 0.67146,2.00068 1.65689,3.74578 2.95625,5.23532 1.29934,1.48952 2.87627,2.65069 4.73083,3.48329 1.85452,0.83259 3.92076,1.2488 6.19861,1.2488 1.69323,0 3.29913,-0.32146 4.81769,-0.96415 1.51857,-0.6427 2.86912,-1.54809 4.05181,-2.71618 1.18259,-1.16827 2.13897,-2.54109 2.86935,-4.11825 0.73029,-1.57737 1.18275,-3.28648 1.35749,-5.12735 h -1.92627 c -0.0883,1.43179 -0.43158,2.82677 -1.03,4.18516 -0.59846,1.35859 -1.40879,2.57079 -2.43095,3.637 -1.02217,1.06622 -2.19028,1.90593 -3.50432,2.51915 -1.31405,0.61322 -2.71563,0.91982 -4.2048,0.91982 -1.98557,0 -3.78888,-0.3796 -5.40991,-1.1392 -1.62109,-0.75941 -2.99372,-1.8181 -4.11795,-3.17629 -1.12418,-1.35798 -1.97843,-2.92802 -2.56259,-4.70993 -0.58412,-1.78189 -0.87622,-3.68052 -0.87622,-5.69603 0,-2.0156 0.2921,-3.91421 0.87622,-5.69612 0.58416,-1.7819 1.43841,-3.35195 2.56259,-4.70993 1.12423,-1.35798 2.49686,-2.41687 4.11795,-3.17627 1.62103,-0.75941 3.42434,-1.13921 5.40991,-1.13921 2.68601,0 5.02931,0.7594 7.03005,2.27841 2.00067,1.51901 3.20511,3.5634 3.6133,6.13318 z"
       id="path1000" />
    <path
       style="font-style:normal;font-weight:normal;font-size:40px;line-height:125%;font-family:Helvetica75;-inkscape-font-specification:Helvetica75;letter-spacing:0px;word-spacing:0px;fill:#333333;fill-opacity:1;stroke:none;stroke-width:2.03321"
       d="m 260.78835,128.00901 h -1.66422 v 22.52091 h 1.66422 v -12.31209 c 0.0876,-1.63572 0.31375,-2.89895 0.67915,-3.78999 0.36539,-0.89094 0.98605,-1.78901 1.86212,-2.69379 0.78779,-0.78868 1.65627,-1.35859 2.60538,-1.70932 0.94912,-0.35073 1.87636,-0.52619 2.78177,-0.52619 0.0883,0 0.23443,0 0.4385,0 0.17466,0.0285 0.30608,0.0448 0.39429,0.0448 v -1.66459 c -2.13165,0 -3.99334,0.48919 -5.58499,1.46737 -1.59167,0.97838 -2.60668,2.19789 -3.04513,3.65897 h -0.13114 z"
       id="path1002" />
    <path
       id="path1004"
       style="font-style:normal;font-weight:normal;font-size:40px;line-height:125%;font-family:Helvetica75;-inkscape-font-specification:Helvetica75;letter-spacing:0px;word-spacing:0px;fill:#333333;fill-opacity:1;stroke:none;stroke-width:2.03321"
       d="m 244.88281,127.48438 c -1.60593,0 -3.05085,0.30671 -4.33593,0.91992 -1.28506,0.61321 -2.3797,1.46036 -3.28516,2.54101 -0.90539,1.08086 -1.5848,2.33652 -2.03711,3.76758 -0.45224,1.43117 -0.67773,2.94939 -0.67773,4.55664 0,1.60623 0.23221,3.12566 0.69921,4.55664 0.46702,1.43117 1.13963,2.68674 2.01563,3.76758 0.87607,1.08086 1.96386,1.92781 3.26367,2.54102 1.29974,0.61321 2.75149,0.91992 4.35742,0.91992 1.60588,0 3.05274,-0.30671 4.33789,-0.91992 1.28504,-0.61321 2.38022,-1.46701 3.28516,-2.5625 0.90506,-1.09549 1.5824,-2.35104 2.03516,-3.76758 0.45266,-1.41653 0.67968,-2.92893 0.67968,-4.53516 0,-1.60725 -0.22702,-3.12547 -0.67968,-4.55664 -0.45276,-1.43106 -1.12301,-2.68672 -2.01368,-3.76758 -0.89076,-1.08065 -1.98586,-1.9278 -3.28515,-2.54101 -1.29934,-0.61321 -2.7535,-0.91992 -4.35938,-0.91992 z m 0,1.44531 c 1.3724,0 2.59913,0.27676 3.67969,0.83203 1.08054,0.55547 1.9937,1.31556 2.73828,2.2793 0.74452,0.96354 1.30591,2.06487 1.68555,3.30664 0.37961,1.24168 0.57031,2.54904 0.57031,3.92187 0,1.37262 -0.19081,2.68061 -0.57031,3.92188 -0.37964,1.24127 -0.94103,2.34444 -1.68555,3.30859 -0.74458,0.96394 -1.65774,1.72227 -2.73828,2.27734 -1.08056,0.55487 -2.30729,0.83204 -3.67969,0.83204 -1.37246,0 -2.59916,-0.27717 -3.67969,-0.83204 -1.08056,-0.55507 -1.99179,-1.3134 -2.73632,-2.27734 -0.74458,-0.96415 -1.30791,-2.06732 -1.6875,-3.30859 -0.37964,-1.24127 -0.56836,-2.54926 -0.56836,-3.92188 0,-1.37283 0.18872,-2.68019 0.56836,-3.92187 0.37959,-1.24177 0.94292,-2.3431 1.6875,-3.30664 0.74453,-0.96374 1.65575,-1.72383 2.73632,-2.2793 1.08053,-0.55527 2.30723,-0.83203 3.67969,-0.83203 z" />
    <path
       id="path1006"
       style="font-style:normal;font-weight:normal;font-size:40px;line-height:125%;font-family:Helvetica75;-inkscape-font-specification:Helvetica75;letter-spacing:0px;word-spacing:0px;fill:#333333;fill-opacity:1;stroke:none;stroke-width:2.03321"
       d="m 281.60938,127.48438 c -1.16747,0 -2.22477,0.18211 -3.17383,0.54687 -0.94916,0.36496 -1.75963,0.83263 -2.43164,1.40234 -0.67191,0.5695 -1.21928,1.18252 -1.64258,1.83985 -0.42329,0.65734 -0.73735,1.29283 -0.94141,1.90625 h -0.0879 v -5.16992 h -1.66406 v 30.58203 h 1.66406 v -12.75 h 0.0879 c 0.64251,1.75262 1.67862,3.06039 3.10938,3.92187 1.43081,0.86166 3.12391,1.29102 5.08008,1.29102 3.32945,0 5.84825,-1.06505 7.55664,-3.19727 1.70834,-2.13223 2.5625,-4.98111 2.5625,-8.54492 0,-1.63571 -0.20425,-3.16159 -0.61329,-4.57812 -0.4091,-1.41662 -1.03627,-2.67209 -1.88281,-3.76758 -0.84664,-1.0955 -1.90542,-1.94929 -3.17578,-2.5625 -1.27039,-0.61321 -2.75309,-0.91993 -4.44726,-0.91992 z m 0,1.44531 c 1.46055,0 2.73234,0.28381 3.8125,0.85351 1.0801,0.56951 1.96173,1.35033 2.64843,2.34375 0.68667,0.99363 1.19088,2.11216 1.51172,3.35352 0.32078,1.24127 0.48242,2.51818 0.48242,3.83203 0,1.43159 -0.16851,2.76848 -0.5039,4.00977 -0.33553,1.24127 -0.85382,2.329 -1.55469,3.26367 -0.70095,0.93467 -1.58449,1.67226 -2.65039,2.21289 -1.0658,0.54063 -2.31494,0.81054 -3.74609,0.81055 -1.51862,0 -2.81791,-0.27717 -3.89844,-0.83204 -1.08057,-0.55507 -1.93467,-1.30655 -2.5625,-2.25586 -0.62788,-0.9493 -1.08029,-2.02998 -1.35742,-3.24218 -0.27719,-1.21241 -0.41602,-2.53521 -0.41602,-3.9668 0,-1.40128 0.15442,-2.72316 0.46094,-3.96484 0.30662,-1.24177 0.7881,-2.3431 1.44531,-3.30664 0.65731,-0.96374 1.51133,-1.72383 2.5625,-2.2793 1.05112,-0.55527 2.3058,-0.83203 3.76563,-0.83203 z" />
    <path
       style="font-style:normal;font-weight:normal;font-size:40px;line-height:125%;font-family:Helvetica75;-inkscape-font-specification:Helvetica75;letter-spacing:0px;word-spacing:0px;fill:#333333;fill-opacity:1;stroke:none;stroke-width:2.03321"
       d="m 111.10757,118.61111 h -6.21999 v 5.12653 h 6.21999 z"
       id="path1008" />
    <path
       style="font-style:normal;font-weight:normal;font-size:40px;line-height:125%;font-family:Helvetica75;-inkscape-font-specification:Helvetica75;letter-spacing:0px;word-spacing:0px;fill:#333333;fill-opacity:1;stroke:none;stroke-width:2.03321"
       d="m 104.88758,149.89414 h 6.21999 v -22.65206 h -6.21999 z"
       id="path1010" />
    <path
       id="path1012"
       style="font-style:normal;font-weight:normal;font-size:40px;line-height:125%;font-family:Helvetica75;-inkscape-font-specification:Helvetica75;letter-spacing:0px;word-spacing:0px;fill:#333333;fill-opacity:1;stroke:none;stroke-width:2.03321"
       d="m 125.0293,126.62891 c -1.54791,0 -2.92864,0.29944 -4.14063,0.89843 -1.21198,0.59898 -2.234,1.42324 -3.0664,2.47461 -0.83235,1.05157 -1.45958,2.25001 -1.88282,3.59375 -0.42335,1.34383 -0.63476,2.76048 -0.63476,4.25 0,1.60624 0.1886,3.09592 0.56836,4.46875 0.37967,1.37282 0.96331,2.5781 1.75195,3.61524 0.78874,1.03714 1.80393,1.8477 3.04492,2.43164 1.24092,0.58374 2.67914,0.875 4.31446,0.875 1.40175,0 2.72385,-0.29986 3.96484,-0.89844 1.24093,-0.59857 2.18168,-1.46627 2.82422,-2.60547 h 0.0879 v 2.97852 c 0,1.72396 -0.41617,3.08998 -1.24805,4.09765 -0.83195,1.00766 -2.08141,1.51172 -3.74609,1.51172 -1.19781,0 -2.20383,-0.24254 -3.02149,-0.72461 -0.81763,-0.48228 -1.35907,-1.27679 -1.62109,-2.38672 h -6.17578 c 0.0592,1.22663 0.39463,2.30752 1.00781,3.24219 0.61311,0.93466 1.39463,1.693 2.34375,2.27735 0.9491,0.58413 1.99863,1.02208 3.15234,1.31445 1.15358,0.29258 2.3149,0.43945 3.48243,0.43945 2.45338,0 4.47666,-0.32214 6.06836,-0.96484 1.59161,-0.6427 2.79565,-1.4738 3.61328,-2.4961 0.8177,-1.0225 1.3654,-2.08947 1.64258,-3.19921 0.27711,-1.10992 0.41595,-2.23384 0.41601,-3.37305 v -21.20703 h -5.91406 v 3.02343 h -0.0879 c -0.72988,-1.28517 -1.64985,-2.21349 -2.75977,-2.7832 -1.11003,-0.56951 -2.43726,-0.85351 -3.98437,-0.85351 z m 1.5332,4.6875 c 0.96341,0 1.78836,0.18366 2.47461,0.54882 0.68623,0.36557 1.23353,0.86943 1.64258,1.51172 0.40904,0.64229 0.70705,1.37835 0.89648,2.21094 0.18929,0.8326 0.28516,1.73177 0.28516,2.69531 0,1.72395 -0.46116,3.19914 -1.38086,4.42578 -0.91973,1.22643 -2.22468,1.83985 -3.91797,1.83985 -0.90541,0 -1.6866,-0.19797 -2.34375,-0.5918 -0.65727,-0.39403 -1.18379,-0.91199 -1.57813,-1.55469 -0.39433,-0.6427 -0.6784,-1.35759 -0.85351,-2.14648 -0.17506,-0.78888 -0.26367,-1.62195 -0.26367,-2.49805 0,-1.84007 0.42443,-3.37452 1.27148,-4.60156 0.84709,-1.22705 2.10291,-1.83984 3.76758,-1.83984 z" />
    <path
       style="font-style:normal;font-weight:normal;font-size:40px;line-height:125%;font-family:Helvetica75;-inkscape-font-specification:Helvetica75;letter-spacing:0px;word-spacing:0px;fill:#333333;fill-opacity:1;stroke:none;stroke-width:2.03321"
       d="m 149.17877,118.61111 h -6.21999 v 5.12653 h 6.21999 z"
       id="path1014" />
    <path
       style="font-style:normal;font-weight:normal;font-size:40px;line-height:125%;font-family:Helvetica75;-inkscape-font-specification:Helvetica75;letter-spacing:0px;word-spacing:0px;fill:#333333;fill-opacity:1;stroke:none;stroke-width:2.03321"
       d="m 142.95878,149.89414 h 6.21999 v -22.65206 h -6.21999 z"
       id="path1016" />
    <path
       style="font-style:normal;font-weight:normal;font-size:40px;line-height:125%;font-family:Helvetica75;-inkscape-font-specification:Helvetica75;letter-spacing:0px;word-spacing:0px;fill:#333333;fill-opacity:1;stroke:none;stroke-width:2.03321"
       d="m 161.96097,120.45096 h -6.22001 v 6.79112 h -3.76701 v 4.16259 h 3.76701 v 13.36294 c 0,1.08126 0.18251,1.97953 0.54744,2.69502 0.36489,0.71529 0.87577,1.27015 1.5326,1.66459 0.65676,0.39445 1.40141,0.66486 2.23369,0.81105 0.83235,0.14639 1.77436,0.21918 2.82599,0.21918 1.54791,0 2.7599,-0.0732 3.63601,-0.21918 v -4.86303 c -0.58469,0.11588 -1.2272,0.17485 -1.92761,0.17485 -1.05163,0 -1.75258,-0.17485 -2.10275,-0.52619 -0.35024,-0.35073 -0.52536,-1.05158 -0.52536,-2.10254 v -11.2169 h 4.55572 v -4.16259 h -4.55572 z"
       id="path1018" />
    <path
       id="path1020"
       style="font-style:normal;font-weight:normal;font-size:40px;line-height:125%;font-family:Helvetica75;-inkscape-font-specification:Helvetica75;letter-spacing:0px;word-spacing:0px;fill:#333333;fill-opacity:1;stroke:none;stroke-width:2.03321"
       d="m 179.85547,126.62891 c -1.34306,0 -2.62004,0.12283 -3.83203,0.37109 -1.212,0.24845 -2.32061,0.6725 -3.32813,1.27148 -1.00744,0.59899 -1.81852,1.38881 -2.43164,2.36719 -0.61312,0.97838 -0.96342,2.16821 -1.05078,3.57031 h 6.2207 c 0.11671,-1.19715 0.52558,-2.06659 1.22657,-2.60742 0.70087,-0.54064 1.66439,-0.81054 2.89062,-0.81054 1.2851,0 2.27764,0.20399 2.97852,0.61328 0.70092,0.40908 1.05073,1.22648 1.05078,2.45312 0,0.93435 -0.42254,1.56332 -1.26953,1.88477 -0.8471,0.32145 -2.2054,0.59955 -4.07422,0.83398 -0.75935,0.0874 -1.43191,0.1745 -2.01563,0.26172 -1.10948,0.1464 -2.102,0.35018 -2.97851,0.61328 -0.87645,0.2629 -1.67148,0.64217 -2.38672,1.13867 -0.71512,0.49652 -1.28575,1.1688 -1.70899,2.01563 -0.42335,0.84684 -0.63476,1.88389 -0.63476,3.11133 0,2.21966 0.71566,3.90669 2.14648,5.06054 1.43076,1.15405 3.28464,1.73047 5.5625,1.73047 1.48916,0 2.89972,-0.2269 4.22852,-0.67969 1.32875,-0.4528 2.45863,-1.16146 3.39258,-2.125 0.0295,0.64189 0.17659,1.37304 0.43945,2.19141 h 6.30859 c -0.26289,-0.43856 -0.46032,-1.10381 -0.59179,-1.99414 -0.13147,-0.89056 -0.19732,-1.90572 -0.19727,-3.04492 v -11.78711 c 0,-1.28539 -0.29283,-2.35728 -0.87695,-3.21875 -0.58417,-0.86147 -1.34972,-1.5267 -2.29883,-1.99414 -0.94916,-0.46763 -2.00113,-0.78959 -3.1543,-0.96485 -1.15313,-0.17485 -2.35868,-0.26171 -3.61523,-0.26171 z m 3.72461,12.17968 v 2.32227 c 0,0.49652 -0.0429,1.01406 -0.13086,1.55469 -0.0878,0.54062 -0.29199,1.0965 -0.61328,1.66601 -0.32123,0.56971 -0.83234,1.04402 -1.53321,1.42383 -0.70099,0.3798 -1.62077,0.57031 -2.75976,0.57031 -1.16743,0 -2.095,-0.21145 -2.78125,-0.63476 -0.68622,-0.42352 -1.0293,-1.17654 -1.0293,-2.25782 0,-1.02249 0.32081,-1.77397 0.96289,-2.25585 0.64211,-0.48166 1.5484,-0.8408 2.7168,-1.07422 0.37964,-0.0589 0.87516,-0.13153 1.48828,-0.21875 0.96426,-0.1464 1.73138,-0.29131 2.30078,-0.4375 0.56953,-0.14639 1.02869,-0.36665 1.37891,-0.65821 z" />
    <path
       style="font-style:normal;font-weight:normal;font-size:40px;line-height:125%;font-family:Helvetica75;-inkscape-font-specification:Helvetica75;letter-spacing:0px;word-spacing:0px;fill:#333333;fill-opacity:1;stroke:none;stroke-width:2.03321"
       d="m 194.80402,149.89414 h 6.22 v -31.28303 h -6.22 z"
       id="path1022" />
  </g>
  <g
     transform="matrix(0.9914766,0,0,0.9914766,338.3559,-99.22017)"
     id="g1052">
    <path
       inkscape:export-ydpi="90"
       inkscape:export-xdpi="90"
       id="path1026"
       d="m 46.702556,118.60582 c -3.906744,0 -7.123203,3.21715 -7.123203,7.12498 0,3.90762 3.216459,7.14063 7.123203,7.14063 2.793098,0 5.233591,-1.65362 6.398229,-4.01966 h 19.840966 v 10.79805 h -6.792197 c -1.165496,-2.36402 -3.590885,-4.004 -6.382529,-4.004 -3.906828,0 -7.123245,3.21735 -7.123245,7.12498 0,3.90782 3.216417,7.12497 7.123245,7.12497 2.791644,0 5.217033,-1.65564 6.382529,-4.01945 h 6.792197 v 4.01945 h 13.489978 c 2.335774,0 4.396167,-0.39221 6.177665,-1.16645 1.781389,-0.77404 3.278286,-1.8791 4.475561,-3.31027 1.197351,-1.43118 2.079582,-3.09922 2.663359,-5.01267 0.583656,-1.91326 0.882476,-4.01397 0.882516,-6.32113 0,-5.02386 -1.310692,-8.86377 -3.924033,-11.50715 -2.61345,-2.64337 -6.041076,-3.97228 -10.275068,-3.97228 H 72.941751 v 4.01966 H 53.100785 c -1.164638,-2.36605 -3.605131,-4.01966 -6.398229,-4.01966 z m 0,4.8551 c 1.284746,0 2.2851,0.98468 2.2851,2.26988 0,1.28499 -1.000354,2.28553 -2.2851,2.28553 -1.284721,0 -2.269367,-1.00054 -2.269367,-2.28553 0,-1.2852 0.984646,-2.26988 2.269367,-2.26988 z m 33.125996,0.92999 h 4.901131 c 3.270645,0 5.593182,0.88099 6.965634,2.64826 1.372402,1.76706 2.048685,4.33357 2.048685,7.69251 0,1.66521 -0.207024,3.10676 -0.630358,4.31916 -0.423352,1.21219 -1.003221,2.18712 -1.733548,2.93189 -0.730336,0.74476 -1.554513,1.28742 -2.474213,1.62351 -0.919709,0.33609 -1.89542,0.50464 -2.946935,0.50464 h -6.130396 z m -20.061527,16.11002 c 1.284763,0 2.269282,0.98488 2.269282,2.26987 0,1.28519 -0.984519,2.27007 -2.269282,2.27007 -1.284805,0 -2.269341,-0.98488 -2.269341,-2.27007 0,-1.28499 0.984536,-2.26987 2.269341,-2.26987 z"
       style="color:#000000;font-style:normal;font-variant:normal;font-weight:normal;font-stretch:normal;font-size:medium;line-height:normal;font-family:Sans;-inkscape-font-specification:Sans;text-indent:0;text-align:start;text-decoration:none;text-decoration-line:none;letter-spacing:normal;word-spacing:normal;text-transform:none;writing-mode:lr-tb;direction:ltr;baseline-shift:baseline;text-anchor:start;display:inline;overflow:visible;visibility:visible;fill:#333333;fill-opacity:1;fill-rule:nonzero;stroke:none;stroke-width:25.0776;marker:none;enable-background:accumulate"
       inkscape:connector-curvature="0" />
    <path
       style="font-style:normal;font-weight:normal;font-size:40px;line-height:125%;font-family:Helvetica75;-inkscape-font-specification:Helvetica75;letter-spacing:0px;word-spacing:0px;fill:#333333;fill-opacity:1;stroke:none;stroke-width:2.03321"
       d="m 231.38617,128.57851 c -0.0295,-0.40908 -0.2119,-1.12457 -0.54744,-2.14666 -0.33554,-1.0219 -0.94133,-2.14646 -1.81732,-3.37351 -0.876,-1.22704 -2.16087,-2.29305 -3.85456,-3.19823 -1.6937,-0.90539 -3.81092,-1.35798 -6.35165,-1.35798 -2.27785,0 -4.34409,0.4162 -6.19861,1.24818 -1.85456,0.8322 -3.43149,1.99337 -4.73083,3.48329 -1.29936,1.48994 -2.28479,3.23525 -2.95625,5.23593 -0.67148,2.00088 -1.00725,4.14043 -1.00725,6.41892 0,2.27841 0.33577,4.41797 1.00725,6.41884 0.67146,2.00068 1.65689,3.74578 2.95625,5.23532 1.29934,1.48952 2.87627,2.65069 4.73083,3.48329 1.85452,0.83259 3.92076,1.2488 6.19861,1.2488 1.69323,0 3.29913,-0.32146 4.81769,-0.96415 1.51857,-0.6427 2.86912,-1.54809 4.05181,-2.71618 1.18259,-1.16827 2.13897,-2.54109 2.86935,-4.11825 0.73029,-1.57737 1.18275,-3.28648 1.35749,-5.12735 h -1.92627 c -0.0883,1.43179 -0.43158,2.82677 -1.03,4.18516 -0.59846,1.35859 -1.40879,2.57079 -2.43095,3.637 -1.02217,1.06622 -2.19028,1.90593 -3.50432,2.51915 -1.31405,0.61322 -2.71563,0.91982 -4.2048,0.91982 -1.98557,0 -3.78888,-0.3796 -5.40991,-1.1392 -1.62109,-0.75941 -2.99372,-1.8181 -4.11795,-3.17629 -1.12418,-1.35798 -1.97843,-2.92802 -2.56259,-4.70993 -0.58412,-1.78189 -0.87622,-3.68052 -0.87622,-5.69603 0,-2.0156 0.2921,-3.91421 0.87622,-5.69612 0.58416,-1.7819 1.43841,-3.35195 2.56259,-4.70993 1.12423,-1.35798 2.49686,-2.41687 4.11795,-3.17627 1.62103,-0.75941 3.42434,-1.13921 5.40991,-1.13921 2.68601,0 5.02931,0.7594 7.03005,2.27841 2.00067,1.51901 3.20511,3.5634 3.6133,6.13318 z"
       id="path1028" />
    <path
       style="font-style:normal;font-weight:normal;font-size:40px;line-height:125%;font-family:Helvetica75;-inkscape-font-specification:Helvetica75;letter-spacing:0px;word-spacing:0px;fill:#333333;fill-opacity:1;stroke:none;stroke-width:2.03321"
       d="m 260.78835,128.00901 h -1.66422 v 22.52091 h 1.66422 v -12.31209 c 0.0876,-1.63572 0.31375,-2.89895 0.67915,-3.78999 0.36539,-0.89094 0.98605,-1.78901 1.86212,-2.69379 0.78779,-0.78868 1.65627,-1.35859 2.60538,-1.70932 0.94912,-0.35073 1.87636,-0.52619 2.78177,-0.52619 0.0883,0 0.23443,0 0.4385,0 0.17466,0.0285 0.30608,0.0448 0.39429,0.0448 v -1.66459 c -2.13165,0 -3.99334,0.48919 -5.58499,1.46737 -1.59167,0.97838 -2.60668,2.19789 -3.04513,3.65897 h -0.13114 z"
       id="path1030" />
    <path
       id="path1032"
       style="font-style:normal;font-weight:normal;font-size:40px;line-height:125%;font-family:Helvetica75;-inkscape-font-specification:Helvetica75;letter-spacing:0px;word-spacing:0px;fill:#333333;fill-opacity:1;stroke:none;stroke-width:2.03321"
       d="m 244.88281,127.48438 c -1.60593,0 -3.05085,0.30671 -4.33593,0.91992 -1.28506,0.61321 -2.3797,1.46036 -3.28516,2.54101 -0.90539,1.08086 -1.5848,2.33652 -2.03711,3.76758 -0.45224,1.43117 -0.67773,2.94939 -0.67773,4.55664 0,1.60623 0.23221,3.12566 0.69921,4.55664 0.46702,1.43117 1.13963,2.68674 2.01563,3.76758 0.87607,1.08086 1.96386,1.92781 3.26367,2.54102 1.29974,0.61321 2.75149,0.91992 4.35742,0.91992 1.60588,0 3.05274,-0.30671 4.33789,-0.91992 1.28504,-0.61321 2.38022,-1.46701 3.28516,-2.5625 0.90506,-1.09549 1.5824,-2.35104 2.03516,-3.76758 0.45266,-1.41653 0.67968,-2.92893 0.67968,-4.53516 0,-1.60725 -0.22702,-3.12547 -0.67968,-4.55664 -0.45276,-1.43106 -1.12301,-2.68672 -2.01368,-3.76758 -0.89076,-1.08065 -1.98586,-1.9278 -3.28515,-2.54101 -1.29934,-0.61321 -2.7535,-0.91992 -4.35938,-0.91992 z m 0,1.44531 c 1.3724,0 2.59913,0.27676 3.67969,0.83203 1.08054,0.55547 1.9937,1.31556 2.73828,2.2793 0.74452,0.96354 1.30591,2.06487 1.68555,3.30664 0.37961,1.24168 0.57031,2.54904 0.57031,3.92187 0,1.37262 -0.19081,2.68061 -0.57031,3.92188 -0.37964,1.24127 -0.94103,2.34444 -1.68555,3.30859 -0.74458,0.96394 -1.65774,1.72227 -2.73828,2.27734 -1.08056,0.55487 -2.30729,0.83204 -3.67969,0.83204 -1.37246,0 -2.59916,-0.27717 -3.67969,-0.83204 -1.08056,-0.55507 -1.99179,-1.3134 -2.73632,-2.27734 -0.74458,-0.96415 -1.30791,-2.06732 -1.6875,-3.30859 -0.37964,-1.24127 -0.56836,-2.54926 -0.56836,-3.92188 0,-1.37283 0.18872,-2.68019 0.56836,-3.92187 0.37959,-1.24177 0.94292,-2.3431 1.6875,-3.30664 0.74453,-0.96374 1.65575,-1.72383 2.73632,-2.2793 1.08053,-0.55527 2.30723,-0.83203 3.67969,-0.83203 z" />
    <path
       id="path1034"
       style="font-style:normal;font-weight:normal;font-size:40px;line-height:125%;font-family:Helvetica75;-inkscape-font-specification:Helvetica75;letter-spacing:0px;word-spacing:0px;fill:#333333;fill-opacity:1;stroke:none;stroke-width:2.03321"
       d="m 281.60938,127.48438 c -1.16747,0 -2.22477,0.18211 -3.17383,0.54687 -0.94916,0.36496 -1.75963,0.83263 -2.43164,1.40234 -0.67191,0.5695 -1.21928,1.18252 -1.64258,1.83985 -0.42329,0.65734 -0.73735,1.29283 -0.94141,1.90625 h -0.0879 v -5.16992 h -1.66406 v 30.58203 h 1.66406 v -12.75 h 0.0879 c 0.64251,1.75262 1.67862,3.06039 3.10938,3.92187 1.43081,0.86166 3.12391,1.29102 5.08008,1.29102 3.32945,0 5.84825,-1.06505 7.55664,-3.19727 1.70834,-2.13223 2.5625,-4.98111 2.5625,-8.54492 0,-1.63571 -0.20425,-3.16159 -0.61329,-4.57812 -0.4091,-1.41662 -1.03627,-2.67209 -1.88281,-3.76758 -0.84664,-1.0955 -1.90542,-1.94929 -3.17578,-2.5625 -1.27039,-0.61321 -2.75309,-0.91993 -4.44726,-0.91992 z m 0,1.44531 c 1.46055,0 2.73234,0.28381 3.8125,0.85351 1.0801,0.56951 1.96173,1.35033 2.64843,2.34375 0.68667,0.99363 1.19088,2.11216 1.51172,3.35352 0.32078,1.24127 0.48242,2.51818 0.48242,3.83203 0,1.43159 -0.16851,2.76848 -0.5039,4.00977 -0.33553,1.24127 -0.85382,2.329 -1.55469,3.26367 -0.70095,0.93467 -1.58449,1.67226 -2.65039,2.21289 -1.0658,0.54063 -2.31494,0.81054 -3.74609,0.81055 -1.51862,0 -2.81791,-0.27717 -3.89844,-0.83204 -1.08057,-0.55507 -1.93467,-1.30655 -2.5625,-2.25586 -0.62788,-0.9493 -1.08029,-2.02998 -1.35742,-3.24218 -0.27719,-1.21241 -0.41602,-2.53521 -0.41602,-3.9668 0,-1.40128 0.15442,-2.72316 0.46094,-3.96484 0.30662,-1.24177 0.7881,-2.3431 1.44531,-3.30664 0.65731,-0.96374 1.51133,-1.72383 2.5625,-2.2793 1.05112,-0.55527 2.3058,-0.83203 3.76563,-0.83203 z" />
    <path
       style="font-style:normal;font-weight:normal;font-size:40px;line-height:125%;font-family:Helvetica75;-inkscape-font-specification:Helvetica75;letter-spacing:0px;word-spacing:0px;fill:#333333;fill-opacity:1;stroke:none;stroke-width:2.03321"
       d="m 111.10757,118.61111 h -6.21999 v 5.12653 h 6.21999 z"
       id="path1036" />
    <path
       style="font-style:normal;font-weight:normal;font-size:40px;line-height:125%;font-family:Helvetica75;-inkscape-font-specification:Helvetica75;letter-spacing:0px;word-spacing:0px;fill:#333333;fill-opacity:1;stroke:none;stroke-width:2.03321"
       d="m 104.88758,149.89414 h 6.21999 v -22.65206 h -6.21999 z"
       id="path1038" />
    <path
       id="path1040"
       style="font-style:normal;font-weight:normal;font-size:40px;line-height:125%;font-family:Helvetica75;-inkscape-font-specification:Helvetica75;letter-spacing:0px;word-spacing:0px;fill:#333333;fill-opacity:1;stroke:none;stroke-width:2.03321"
       d="m 125.0293,126.62891 c -1.54791,0 -2.92864,0.29944 -4.14063,0.89843 -1.21198,0.59898 -2.234,1.42324 -3.0664,2.47461 -0.83235,1.05157 -1.45958,2.25001 -1.88282,3.59375 -0.42335,1.34383 -0.63476,2.76048 -0.63476,4.25 0,1.60624 0.1886,3.09592 0.56836,4.46875 0.37967,1.37282 0.96331,2.5781 1.75195,3.61524 0.78874,1.03714 1.80393,1.8477 3.04492,2.43164 1.24092,0.58374 2.67914,0.875 4.31446,0.875 1.40175,0 2.72385,-0.29986 3.96484,-0.89844 1.24093,-0.59857 2.18168,-1.46627 2.82422,-2.60547 h 0.0879 v 2.97852 c 0,1.72396 -0.41617,3.08998 -1.24805,4.09765 -0.83195,1.00766 -2.08141,1.51172 -3.74609,1.51172 -1.19781,0 -2.20383,-0.24254 -3.02149,-0.72461 -0.81763,-0.48228 -1.35907,-1.27679 -1.62109,-2.38672 h -6.17578 c 0.0592,1.22663 0.39463,2.30752 1.00781,3.24219 0.61311,0.93466 1.39463,1.693 2.34375,2.27735 0.9491,0.58413 1.99863,1.02208 3.15234,1.31445 1.15358,0.29258 2.3149,0.43945 3.48243,0.43945 2.45338,0 4.47666,-0.32214 6.06836,-0.96484 1.59161,-0.6427 2.79565,-1.4738 3.61328,-2.4961 0.8177,-1.0225 1.3654,-2.08947 1.64258,-3.19921 0.27711,-1.10992 0.41595,-2.23384 0.41601,-3.37305 v -21.20703 h -5.91406 v 3.02343 h -0.0879 c -0.72988,-1.28517 -1.64985,-2.21349 -2.75977,-2.7832 -1.11003,-0.56951 -2.43726,-0.85351 -3.98437,-0.85351 z m 1.5332,4.6875 c 0.96341,0 1.78836,0.18366 2.47461,0.54882 0.68623,0.36557 1.23353,0.86943 1.64258,1.51172 0.40904,0.64229 0.70705,1.37835 0.89648,2.21094 0.18929,0.8326 0.28516,1.73177 0.28516,2.69531 0,1.72395 -0.46116,3.19914 -1.38086,4.42578 -0.91973,1.22643 -2.22468,1.83985 -3.91797,1.83985 -0.90541,0 -1.6866,-0.19797 -2.34375,-0.5918 -0.65727,-0.39403 -1.18379,-0.91199 -1.57813,-1.55469 -0.39433,-0.6427 -0.6784,-1.35759 -0.85351,-2.14648 -0.17506,-0.78888 -0.26367,-1.62195 -0.26367,-2.49805 0,-1.84007 0.42443,-3.37452 1.27148,-4.60156 0.84709,-1.22705 2.10291,-1.83984 3.76758,-1.83984 z" />
    <path
       style="font-style:normal;font-weight:normal;font-size:40px;line-height:125%;font-family:Helvetica75;-inkscape-font-specification:Helvetica75;letter-spacing:0px;word-spacing:0px;fill:#333333;fill-opacity:1;stroke:none;stroke-width:2.03321"
       d="m 149.17877,118.61111 h -6.21999 v 5.12653 h 6.21999 z"
       id="path1042" />
    <path
       style="font-style:normal;font-weight:normal;font-size:40px;line-height:125%;font-family:Helvetica75;-inkscape-font-specification:Helvetica75;letter-spacing:0px;word-spacing:0px;fill:#333333;fill-opacity:1;stroke:none;stroke-width:2.03321"
       d="m 142.95878,149.89414 h 6.21999 v -22.65206 h -6.21999 z"
       id="path1044" />
    <path
       style="font-style:normal;font-weight:normal;font-size:40px;line-height:125%;font-family:Helvetica75;-inkscape-font-specification:Helvetica75;letter-spacing:0px;word-spacing:0px;fill:#333333;fill-opacity:1;stroke:none;stroke-width:2.03321"
       d="m 161.96097,120.45096 h -6.22001 v 6.79112 h -3.76701 v 4.16259 h 3.76701 v 13.36294 c 0,1.08126 0.18251,1.97953 0.54744,2.69502 0.36489,0.71529 0.87577,1.27015 1.5326,1.66459 0.65676,0.39445 1.40141,0.66486 2.23369,0.81105 0.83235,0.14639 1.77436,0.21918 2.82599,0.21918 1.54791,0 2.7599,-0.0732 3.63601,-0.21918 v -4.86303 c -0.58469,0.11588 -1.2272,0.17485 -1.92761,0.17485 -1.05163,0 -1.75258,-0.17485 -2.10275,-0.52619 -0.35024,-0.35073 -0.52536,-1.05158 -0.52536,-2.10254 v -11.2169 h 4.55572 v -4.16259 h -4.55572 z"
       id="path1046" />
    <path
       id="path1048"
       style="font-style:normal;font-weight:normal;font-size:40px;line-height:125%;font-family:Helvetica75;-inkscape-font-specification:Helvetica75;letter-spacing:0px;word-spacing:0px;fill:#333333;fill-opacity:1;stroke:none;stroke-width:2.03321"
       d="m 179.85547,126.62891 c -1.34306,0 -2.62004,0.12283 -3.83203,0.37109 -1.212,0.24845 -2.32061,0.6725 -3.32813,1.27148 -1.00744,0.59899 -1.81852,1.38881 -2.43164,2.36719 -0.61312,0.97838 -0.96342,2.16821 -1.05078,3.57031 h 6.2207 c 0.11671,-1.19715 0.52558,-2.06659 1.22657,-2.60742 0.70087,-0.54064 1.66439,-0.81054 2.89062,-0.81054 1.2851,0 2.27764,0.20399 2.97852,0.61328 0.70092,0.40908 1.05073,1.22648 1.05078,2.45312 0,0.93435 -0.42254,1.56332 -1.26953,1.88477 -0.8471,0.32145 -2.2054,0.59955 -4.07422,0.83398 -0.75935,0.0874 -1.43191,0.1745 -2.01563,0.26172 -1.10948,0.1464 -2.102,0.35018 -2.97851,0.61328 -0.87645,0.2629 -1.67148,0.64217 -2.38672,1.13867 -0.71512,0.49652 -1.28575,1.1688 -1.70899,2.01563 -0.42335,0.84684 -0.63476,1.88389 -0.63476,3.11133 0,2.21966 0.71566,3.90669 2.14648,5.06054 1.43076,1.15405 3.28464,1.73047 5.5625,1.73047 1.48916,0 2.89972,-0.2269 4.22852,-0.67969 1.32875,-0.4528 2.45863,-1.16146 3.39258,-2.125 0.0295,0.64189 0.17659,1.37304 0.43945,2.19141 h 6.30859 c -0.26289,-0.43856 -0.46032,-1.10381 -0.59179,-1.99414 -0.13147,-0.89056 -0.19732,-1.90572 -0.19727,-3.04492 v -11.78711 c 0,-1.28539 -0.29283,-2.35728 -0.87695,-3.21875 -0.58417,-0.86147 -1.34972,-1.5267 -2.29883,-1.99414 -0.94916,-0.46763 -2.00113,-0.78959 -3.1543,-0.96485 -1.15313,-0.17485 -2.35868,-0.26171 -3.61523,-0.26171 z m 3.72461,12.17968 v 2.32227 c 0,0.49652 -0.0429,1.01406 -0.13086,1.55469 -0.0878,0.54062 -0.29199,1.0965 -0.61328,1.66601 -0.32123,0.56971 -0.83234,1.04402 -1.53321,1.42383 -0.70099,0.3798 -1.62077,0.57031 -2.75976,0.57031 -1.16743,0 -2.095,-0.21145 -2.78125,-0.63476 -0.68622,-0.42352 -1.0293,-1.17654 -1.0293,-2.25782 0,-1.02249 0.32081,-1.77397 0.96289,-2.25585 0.64211,-0.48166 1.5484,-0.8408 2.7168,-1.07422 0.37964,-0.0589 0.87516,-0.13153 1.48828,-0.21875 0.96426,-0.1464 1.73138,-0.29131 2.30078,-0.4375 0.56953,-0.14639 1.02869,-0.36665 1.37891,-0.65821 z" />
    <path
       style="font-style:normal;font-weight:normal;font-size:40px;line-height:125%;font-family:Helvetica75;-inkscape-font-specification:Helvetica75;letter-spacing:0px;word-spacing:0px;fill:#333333;fill-opacity:1;stroke:none;stroke-width:2.03321"
       d="m 194.80402,149.89414 h 6.22 v -31.28303 h -6.22 z"
       id="path1050" />
  </g>
</svg>
