<?xml version="1.0" encoding="UTF-8" standalone="no"?>
<svg
   xmlns:dc="http://purl.org/dc/elements/1.1/"
   xmlns:cc="http://creativecommons.org/ns#"
   xmlns:rdf="http://www.w3.org/1999/02/22-rdf-syntax-ns#"
   xmlns:svg="http://www.w3.org/2000/svg"
   xmlns="http://www.w3.org/2000/svg"
   xmlns:sodipodi="http://sodipodi.sourceforge.net/DTD/sodipodi-0.dtd"
   xmlns:inkscape="http://www.inkscape.org/namespaces/inkscape"
   inkscape:version="1.0 (4035a4fb49, 2020-05-01)"
   sodipodi:docname="logo-2.svg"
   id="svg8"
   version="1.1"
   width="250"
   viewBox="0 0 250 64"
   height="64"
   enable-background="new 0 0 64 64">
  <metadata
     id="metadata14">
    <rdf:RDF>
      <cc:Work
         rdf:about="">
        <dc:format>image/svg+xml</dc:format>
        <dc:type
           rdf:resource="http://purl.org/dc/dcmitype/StillImage" />
        <dc:title></dc:title>
      </cc:Work>
    </rdf:RDF>
  </metadata>
  <defs
     id="defs12" />
  <sodipodi:namedview
     inkscape:current-layer="svg8"
     inkscape:window-maximized="1"
     inkscape:window-y="-8"
     inkscape:window-x="-8"
     inkscape:cy="61.790759"
     inkscape:cx="144.50672"
     inkscape:zoom="1.9915365"
     showgrid="false"
     id="namedview10"
     inkscape:window-height="705"
     inkscape:window-width="1366"
     inkscape:pageshadow="2"
     inkscape:pageopacity="0"
     guidetolerance="10"
     gridtolerance="10"
     objecttolerance="10"
     borderopacity="1"
     bordercolor="#666666"
     pagecolor="#ffffff" />
  <g
     transform="translate(11.046747,-134.56947)"
     id="g6"
     fill="#0067f4">
    <path
       id="path2"
       d="M 60,9.3 H 4 c -2.1,0 -4,1.9 -4,4 V 40 c 0,2.1 1.9,4 4,4 h 25.3 v 5.3 H 18.7 c -1.6,0 -2.7,1.1 -2.7,2.7 0,1.6 1.1,2.7 2.7,2.7 h 26.7 c 1.6,0 2.7,-1.1 2.7,-2.7 0,-1.6 -1.1,-2.7 -2.7,-2.7 H 34.7 V 44 H 60 c 2.1,0 4,-1.9 4,-4 V 13.3 c 0,-2.1 -1.9,-4 -4,-4 z M 58.7,38.7 H 5.3 v -24 h 53.3 v 24 z" />
    <path
       id="path4"
       d="m 17.3,36 c 2.1,0 4,-1.9 4,-4 1.3,-1.1 3.5,-2.7 5.3,-4.3 0.6,0.3 0.9,0.3 1.4,0.3 1.1,0 1.9,-0.3 2.7,-1.1 l 4.8,1.6 c 0.8,0.3 1.6,0.3 2.4,-0.3 L 42.7,25 c 0.5,0.3 1.1,0.3 1.6,0.3 2.1,0 4,-1.9 4,-4 0,-2.1 -2.1,-4 -4.3,-4 -1.9,0 -3.2,1.1 -3.7,2.7 l -4.5,2.9 -4.5,-1.3 C 30.4,20.5 29.3,20 28,20 c -1.9,0 -3.5,1.3 -3.7,2.9 -2.1,1.6 -5.1,4 -6.4,5.1 h -0.3 c -2.4,0 -4.3,1.9 -4.3,4 0,2.1 1.9,4 4,4 z" />
  </g>
  <g
     style="fill:#333333"
     transform="matrix(0.9914766,0,0,0.9914766,-39.242002,-103.36607)"
     id="g942">
    <path
       inkscape:export-ydpi="90"
       inkscape:export-xdpi="90"
       id="path3106-3-3-7"
       d="m 46.702556,118.60582 c -3.906744,0 -7.123203,3.21715 -7.123203,7.12498 0,3.90762 3.216459,7.14063 7.123203,7.14063 2.793098,0 5.233591,-1.65362 6.398229,-4.01966 h 19.840966 v 10.79805 h -6.792197 c -1.165496,-2.36402 -3.590885,-4.004 -6.382529,-4.004 -3.906828,0 -7.123245,3.21735 -7.123245,7.12498 0,3.90782 3.216417,7.12497 7.123245,7.12497 2.791644,0 5.217033,-1.65564 6.382529,-4.01945 h 6.792197 v 4.01945 h 13.489978 c 2.335774,0 4.396167,-0.39221 6.177665,-1.16645 1.781389,-0.77404 3.278286,-1.8791 4.475561,-3.31027 1.197351,-1.43118 2.079582,-3.09922 2.663359,-5.01267 0.583656,-1.91326 0.882476,-4.01397 0.882516,-6.32113 0,-5.02386 -1.310692,-8.86377 -3.924033,-11.50715 -2.61345,-2.64337 -6.041076,-3.97228 -10.275068,-3.97228 H 72.941751 v 4.01966 H 53.100785 c -1.164638,-2.36605 -3.605131,-4.01966 -6.398229,-4.01966 z m 0,4.8551 c 1.284746,0 2.2851,0.98468 2.2851,2.26988 0,1.28499 -1.000354,2.28553 -2.2851,2.28553 -1.284721,0 -2.269367,-1.00054 -2.269367,-2.28553 0,-1.2852 0.984646,-2.26988 2.269367,-2.26988 z m 33.125996,0.92999 h 4.901131 c 3.270645,0 5.593182,0.88099 6.965634,2.64826 1.372402,1.76706 2.048685,4.33357 2.048685,7.69251 0,1.66521 -0.207024,3.10676 -0.630358,4.31916 -0.423352,1.21219 -1.003221,2.18712 -1.733548,2.93189 -0.730336,0.74476 -1.554513,1.28742 -2.474213,1.62351 -0.919709,0.33609 -1.89542,0.50464 -2.946935,0.50464 h -6.130396 z m -20.061527,16.11002 c 1.284763,0 2.269282,0.98488 2.269282,2.26987 0,1.28519 -0.984519,2.27007 -2.269282,2.27007 -1.284805,0 -2.269341,-0.98488 -2.269341,-2.27007 0,-1.28499 0.984536,-2.26987 2.269341,-2.26987 z"
       style="color:#000000;font-style:normal;font-variant:normal;font-weight:normal;font-stretch:normal;font-size:medium;line-height:normal;font-family:Sans;-inkscape-font-specification:Sans;text-indent:0;text-align:start;text-decoration:none;text-decoration-line:none;letter-spacing:normal;word-spacing:normal;text-transform:none;writing-mode:lr-tb;direction:ltr;baseline-shift:baseline;text-anchor:start;display:inline;overflow:visible;visibility:visible;fill:#ff2a2a;fill-opacity:1;fill-rule:nonzero;stroke:none;stroke-width:25.0776;marker:none;enable-background:accumulate"
       inkscape:connector-curvature="0" />
    <path
       style="font-style:normal;font-weight:normal;font-size:40px;line-height:125%;font-family:Helvetica75;-inkscape-font-specification:Helvetica75;letter-spacing:0px;word-spacing:0px;fill:#333333;fill-opacity:1;stroke:none;stroke-width:2.03321"
       d="m 231.38617,128.57851 c -0.0295,-0.40908 -0.2119,-1.12457 -0.54744,-2.14666 -0.33554,-1.0219 -0.94133,-2.14646 -1.81732,-3.37351 -0.876,-1.22704 -2.16087,-2.29305 -3.85456,-3.19823 -1.6937,-0.90539 -3.81092,-1.35798 -6.35165,-1.35798 -2.27785,0 -4.34409,0.4162 -6.19861,1.24818 -1.85456,0.8322 -3.43149,1.99337 -4.73083,3.48329 -1.29936,1.48994 -2.28479,3.23525 -2.95625,5.23593 -0.67148,2.00088 -1.00725,4.14043 -1.00725,6.41892 0,2.27841 0.33577,4.41797 1.00725,6.41884 0.67146,2.00068 1.65689,3.74578 2.95625,5.23532 1.29934,1.48952 2.87627,2.65069 4.73083,3.48329 1.85452,0.83259 3.92076,1.2488 6.19861,1.2488 1.69323,0 3.29913,-0.32146 4.81769,-0.96415 1.51857,-0.6427 2.86912,-1.54809 4.05181,-2.71618 1.18259,-1.16827 2.13897,-2.54109 2.86935,-4.11825 0.73029,-1.57737 1.18275,-3.28648 1.35749,-5.12735 h -1.92627 c -0.0883,1.43179 -0.43158,2.82677 -1.03,4.18516 -0.59846,1.35859 -1.40879,2.57079 -2.43095,3.637 -1.02217,1.06622 -2.19028,1.90593 -3.50432,2.51915 -1.31405,0.61322 -2.71563,0.91982 -4.2048,0.91982 -1.98557,0 -3.78888,-0.3796 -5.40991,-1.1392 -1.62109,-0.75941 -2.99372,-1.8181 -4.11795,-3.17629 -1.12418,-1.35798 -1.97843,-2.92802 -2.56259,-4.70993 -0.58412,-1.78189 -0.87622,-3.68052 -0.87622,-5.69603 0,-2.0156 0.2921,-3.91421 0.87622,-5.69612 0.58416,-1.7819 1.43841,-3.35195 2.56259,-4.70993 1.12423,-1.35798 2.49686,-2.41687 4.11795,-3.17627 1.62103,-0.75941 3.42434,-1.13921 5.40991,-1.13921 2.68601,0 5.02931,0.7594 7.03005,2.27841 2.00067,1.51901 3.20511,3.5634 3.6133,6.13318 z"
       id="path881" />
    <path
       style="font-style:normal;font-weight:normal;font-size:40px;line-height:125%;font-family:Helvetica75;-inkscape-font-specification:Helvetica75;letter-spacing:0px;word-spacing:0px;fill:#333333;fill-opacity:1;stroke:none;stroke-width:2.03321"
       d="m 260.78835,128.00901 h -1.66422 v 22.52091 h 1.66422 v -12.31209 c 0.0876,-1.63572 0.31375,-2.89895 0.67915,-3.78999 0.36539,-0.89094 0.98605,-1.78901 1.86212,-2.69379 0.78779,-0.78868 1.65627,-1.35859 2.60538,-1.70932 0.94912,-0.35073 1.87636,-0.52619 2.78177,-0.52619 0.0883,0 0.23443,0 0.4385,0 0.17466,0.0285 0.30608,0.0448 0.39429,0.0448 v -1.66459 c -2.13165,0 -3.99334,0.48919 -5.58499,1.46737 -1.59167,0.97838 -2.60668,2.19789 -3.04513,3.65897 h -0.13114 z"
       id="path875" />
    <path
       id="path877"
       style="font-style:normal;font-weight:normal;font-size:40px;line-height:125%;font-family:Helvetica75;-inkscape-font-specification:Helvetica75;letter-spacing:0px;word-spacing:0px;fill:#333333;fill-opacity:1;stroke:none;stroke-width:2.03321"
       d="m 244.88281,127.48438 c -1.60593,0 -3.05085,0.30671 -4.33593,0.91992 -1.28506,0.61321 -2.3797,1.46036 -3.28516,2.54101 -0.90539,1.08086 -1.5848,2.33652 -2.03711,3.76758 -0.45224,1.43117 -0.67773,2.94939 -0.67773,4.55664 0,1.60623 0.23221,3.12566 0.69921,4.55664 0.46702,1.43117 1.13963,2.68674 2.01563,3.76758 0.87607,1.08086 1.96386,1.92781 3.26367,2.54102 1.29974,0.61321 2.75149,0.91992 4.35742,0.91992 1.60588,0 3.05274,-0.30671 4.33789,-0.91992 1.28504,-0.61321 2.38022,-1.46701 3.28516,-2.5625 0.90506,-1.09549 1.5824,-2.35104 2.03516,-3.76758 0.45266,-1.41653 0.67968,-2.92893 0.67968,-4.53516 0,-1.60725 -0.22702,-3.12547 -0.67968,-4.55664 -0.45276,-1.43106 -1.12301,-2.68672 -2.01368,-3.76758 -0.89076,-1.08065 -1.98586,-1.9278 -3.28515,-2.54101 -1.29934,-0.61321 -2.7535,-0.91992 -4.35938,-0.91992 z m 0,1.44531 c 1.3724,0 2.59913,0.27676 3.67969,0.83203 1.08054,0.55547 1.9937,1.31556 2.73828,2.2793 0.74452,0.96354 1.30591,2.06487 1.68555,3.30664 0.37961,1.24168 0.57031,2.54904 0.57031,3.92187 0,1.37262 -0.19081,2.68061 -0.57031,3.92188 -0.37964,1.24127 -0.94103,2.34444 -1.68555,3.30859 -0.74458,0.96394 -1.65774,1.72227 -2.73828,2.27734 -1.08056,0.55487 -2.30729,0.83204 -3.67969,0.83204 -1.37246,0 -2.59916,-0.27717 -3.67969,-0.83204 -1.08056,-0.55507 -1.99179,-1.3134 -2.73632,-2.27734 -0.74458,-0.96415 -1.30791,-2.06732 -1.6875,-3.30859 -0.37964,-1.24127 -0.56836,-2.54926 -0.56836,-3.92188 0,-1.37283 0.18872,-2.68019 0.56836,-3.92187 0.37959,-1.24177 0.94292,-2.3431 1.6875,-3.30664 0.74453,-0.96374 1.65575,-1.72383 2.73632,-2.2793 1.08053,-0.55527 2.30723,-0.83203 3.67969,-0.83203 z" />
    <path
       id="path873"
       style="font-style:normal;font-weight:normal;font-size:40px;line-height:125%;font-family:Helvetica75;-inkscape-font-specification:Helvetica75;letter-spacing:0px;word-spacing:0px;fill:#333333;fill-opacity:1;stroke:none;stroke-width:2.03321"
       d="m 281.60938,127.48438 c -1.16747,0 -2.22477,0.18211 -3.17383,0.54687 -0.94916,0.36496 -1.75963,0.83263 -2.43164,1.40234 -0.67191,0.5695 -1.21928,1.18252 -1.64258,1.83985 -0.42329,0.65734 -0.73735,1.29283 -0.94141,1.90625 h -0.0879 v -5.16992 h -1.66406 v 30.58203 h 1.66406 v -12.75 h 0.0879 c 0.64251,1.75262 1.67862,3.06039 3.10938,3.92187 1.43081,0.86166 3.12391,1.29102 5.08008,1.29102 3.32945,0 5.84825,-1.06505 7.55664,-3.19727 1.70834,-2.13223 2.5625,-4.98111 2.5625,-8.54492 0,-1.63571 -0.20425,-3.16159 -0.61329,-4.57812 -0.4091,-1.41662 -1.03627,-2.67209 -1.88281,-3.76758 -0.84664,-1.0955 -1.90542,-1.94929 -3.17578,-2.5625 -1.27039,-0.61321 -2.75309,-0.91993 -4.44726,-0.91992 z m 0,1.44531 c 1.46055,0 2.73234,0.28381 3.8125,0.85351 1.0801,0.56951 1.96173,1.35033 2.64843,2.34375 0.68667,0.99363 1.19088,2.11216 1.51172,3.35352 0.32078,1.24127 0.48242,2.51818 0.48242,3.83203 0,1.43159 -0.16851,2.76848 -0.5039,4.00977 -0.33553,1.24127 -0.85382,2.329 -1.55469,3.26367 -0.70095,0.93467 -1.58449,1.67226 -2.65039,2.21289 -1.0658,0.54063 -2.31494,0.81054 -3.74609,0.81055 -1.51862,0 -2.81791,-0.27717 -3.89844,-0.83204 -1.08057,-0.55507 -1.93467,-1.30655 -2.5625,-2.25586 -0.62788,-0.9493 -1.08029,-2.02998 -1.35742,-3.24218 -0.27719,-1.21241 -0.41602,-2.53521 -0.41602,-3.9668 0,-1.40128 0.15442,-2.72316 0.46094,-3.96484 0.30662,-1.24177 0.7881,-2.3431 1.44531,-3.30664 0.65731,-0.96374 1.51133,-1.72383 2.5625,-2.2793 1.05112,-0.55527 2.3058,-0.83203 3.76563,-0.83203 z" />
    <path
       style="font-style:normal;font-weight:normal;font-size:40px;line-height:125%;font-family:Helvetica75;-inkscape-font-specification:Helvetica75;letter-spacing:0px;word-spacing:0px;fill:#333333;fill-opacity:1;stroke:none;stroke-width:2.03321"
       d="m 111.10757,118.61111 h -6.21999 v 5.12653 h 6.21999 z"
       id="path869" />
    <path
       style="font-style:normal;font-weight:normal;font-size:40px;line-height:125%;font-family:Helvetica75;-inkscape-font-specification:Helvetica75;letter-spacing:0px;word-spacing:0px;fill:#333333;fill-opacity:1;stroke:none;stroke-width:2.03321"
       d="m 104.88758,149.89414 h 6.21999 v -22.65206 h -6.21999 z"
       id="path867" />
    <path
       id="path863"
       style="font-style:normal;font-weight:normal;font-size:40px;line-height:125%;font-family:Helvetica75;-inkscape-font-specification:Helvetica75;letter-spacing:0px;word-spacing:0px;fill:#333333;fill-opacity:1;stroke:none;stroke-width:2.03321"
       d="m 125.0293,126.62891 c -1.54791,0 -2.92864,0.29944 -4.14063,0.89843 -1.21198,0.59898 -2.234,1.42324 -3.0664,2.47461 -0.83235,1.05157 -1.45958,2.25001 -1.88282,3.59375 -0.42335,1.34383 -0.63476,2.76048 -0.63476,4.25 0,1.60624 0.1886,3.09592 0.56836,4.46875 0.37967,1.37282 0.96331,2.5781 1.75195,3.61524 0.78874,1.03714 1.80393,1.8477 3.04492,2.43164 1.24092,0.58374 2.67914,0.875 4.31446,0.875 1.40175,0 2.72385,-0.29986 3.96484,-0.89844 1.24093,-0.59857 2.18168,-1.46627 2.82422,-2.60547 h 0.0879 v 2.97852 c 0,1.72396 -0.41617,3.08998 -1.24805,4.09765 -0.83195,1.00766 -2.08141,1.51172 -3.74609,1.51172 -1.19781,0 -2.20383,-0.24254 -3.02149,-0.72461 -0.81763,-0.48228 -1.35907,-1.27679 -1.62109,-2.38672 h -6.17578 c 0.0592,1.22663 0.39463,2.30752 1.00781,3.24219 0.61311,0.93466 1.39463,1.693 2.34375,2.27735 0.9491,0.58413 1.99863,1.02208 3.15234,1.31445 1.15358,0.29258 2.3149,0.43945 3.48243,0.43945 2.45338,0 4.47666,-0.32214 6.06836,-0.96484 1.59161,-0.6427 2.79565,-1.4738 3.61328,-2.4961 0.8177,-1.0225 1.3654,-2.08947 1.64258,-3.19921 0.27711,-1.10992 0.41595,-2.23384 0.41601,-3.37305 v -21.20703 h -5.91406 v 3.02343 h -0.0879 c -0.72988,-1.28517 -1.64985,-2.21349 -2.75977,-2.7832 -1.11003,-0.56951 -2.43726,-0.85351 -3.98437,-0.85351 z m 1.5332,4.6875 c 0.96341,0 1.78836,0.18366 2.47461,0.54882 0.68623,0.36557 1.23353,0.86943 1.64258,1.51172 0.40904,0.64229 0.70705,1.37835 0.89648,2.21094 0.18929,0.8326 0.28516,1.73177 0.28516,2.69531 0,1.72395 -0.46116,3.19914 -1.38086,4.42578 -0.91973,1.22643 -2.22468,1.83985 -3.91797,1.83985 -0.90541,0 -1.6866,-0.19797 -2.34375,-0.5918 -0.65727,-0.39403 -1.18379,-0.91199 -1.57813,-1.55469 -0.39433,-0.6427 -0.6784,-1.35759 -0.85351,-2.14648 -0.17506,-0.78888 -0.26367,-1.62195 -0.26367,-2.49805 0,-1.84007 0.42443,-3.37452 1.27148,-4.60156 0.84709,-1.22705 2.10291,-1.83984 3.76758,-1.83984 z" />
    <path
       style="font-style:normal;font-weight:normal;font-size:40px;line-height:125%;font-family:Helvetica75;-inkscape-font-specification:Helvetica75;letter-spacing:0px;word-spacing:0px;fill:#333333;fill-opacity:1;stroke:none;stroke-width:2.03321"
       d="m 149.17877,118.61111 h -6.21999 v 5.12653 h 6.21999 z"
       id="path861" />
    <path
       style="font-style:normal;font-weight:normal;font-size:40px;line-height:125%;font-family:Helvetica75;-inkscape-font-specification:Helvetica75;letter-spacing:0px;word-spacing:0px;fill:#333333;fill-opacity:1;stroke:none;stroke-width:2.03321"
       d="m 142.95878,149.89414 h 6.21999 v -22.65206 h -6.21999 z"
       id="path859" />
    <path
       style="font-style:normal;font-weight:normal;font-size:40px;line-height:125%;font-family:Helvetica75;-inkscape-font-specification:Helvetica75;letter-spacing:0px;word-spacing:0px;fill:#333333;fill-opacity:1;stroke:none;stroke-width:2.03321"
       d="m 161.96097,120.45096 h -6.22001 v 6.79112 h -3.76701 v 4.16259 h 3.76701 v 13.36294 c 0,1.08126 0.18251,1.97953 0.54744,2.69502 0.36489,0.71529 0.87577,1.27015 1.5326,1.66459 0.65676,0.39445 1.40141,0.66486 2.23369,0.81105 0.83235,0.14639 1.77436,0.21918 2.82599,0.21918 1.54791,0 2.7599,-0.0732 3.63601,-0.21918 v -4.86303 c -0.58469,0.11588 -1.2272,0.17485 -1.92761,0.17485 -1.05163,0 -1.75258,-0.17485 -2.10275,-0.52619 -0.35024,-0.35073 -0.52536,-1.05158 -0.52536,-2.10254 v -11.2169 h 4.55572 v -4.16259 h -4.55572 z"
       id="path857" />
    <path
       id="path855"
       style="font-style:normal;font-weight:normal;font-size:40px;line-height:125%;font-family:Helvetica75;-inkscape-font-specification:Helvetica75;letter-spacing:0px;word-spacing:0px;fill:#333333;fill-opacity:1;stroke:none;stroke-width:2.03321"
       d="m 179.85547,126.62891 c -1.34306,0 -2.62004,0.12283 -3.83203,0.37109 -1.212,0.24845 -2.32061,0.6725 -3.32813,1.27148 -1.00744,0.59899 -1.81852,1.38881 -2.43164,2.36719 -0.61312,0.97838 -0.96342,2.16821 -1.05078,3.57031 h 6.2207 c 0.11671,-1.19715 0.52558,-2.06659 1.22657,-2.60742 0.70087,-0.54064 1.66439,-0.81054 2.89062,-0.81054 1.2851,0 2.27764,0.20399 2.97852,0.61328 0.70092,0.40908 1.05073,1.22648 1.05078,2.45312 0,0.93435 -0.42254,1.56332 -1.26953,1.88477 -0.8471,0.32145 -2.2054,0.59955 -4.07422,0.83398 -0.75935,0.0874 -1.43191,0.1745 -2.01563,0.26172 -1.10948,0.1464 -2.102,0.35018 -2.97851,0.61328 -0.87645,0.2629 -1.67148,0.64217 -2.38672,1.13867 -0.71512,0.49652 -1.28575,1.1688 -1.70899,2.01563 -0.42335,0.84684 -0.63476,1.88389 -0.63476,3.11133 0,2.21966 0.71566,3.90669 2.14648,5.06054 1.43076,1.15405 3.28464,1.73047 5.5625,1.73047 1.48916,0 2.89972,-0.2269 4.22852,-0.67969 1.32875,-0.4528 2.45863,-1.16146 3.39258,-2.125 0.0295,0.64189 0.17659,1.37304 0.43945,2.19141 h 6.30859 c -0.26289,-0.43856 -0.46032,-1.10381 -0.59179,-1.99414 -0.13147,-0.89056 -0.19732,-1.90572 -0.19727,-3.04492 v -11.78711 c 0,-1.28539 -0.29283,-2.35728 -0.87695,-3.21875 -0.58417,-0.86147 -1.34972,-1.5267 -2.29883,-1.99414 -0.94916,-0.46763 -2.00113,-0.78959 -3.1543,-0.96485 -1.15313,-0.17485 -2.35868,-0.26171 -3.61523,-0.26171 z m 3.72461,12.17968 v 2.32227 c 0,0.49652 -0.0429,1.01406 -0.13086,1.55469 -0.0878,0.54062 -0.29199,1.0965 -0.61328,1.66601 -0.32123,0.56971 -0.83234,1.04402 -1.53321,1.42383 -0.70099,0.3798 -1.62077,0.57031 -2.75976,0.57031 -1.16743,0 -2.095,-0.21145 -2.78125,-0.63476 -0.68622,-0.42352 -1.0293,-1.17654 -1.0293,-2.25782 0,-1.02249 0.32081,-1.77397 0.96289,-2.25585 0.64211,-0.48166 1.5484,-0.8408 2.7168,-1.07422 0.37964,-0.0589 0.87516,-0.13153 1.48828,-0.21875 0.96426,-0.1464 1.73138,-0.29131 2.30078,-0.4375 0.56953,-0.14639 1.02869,-0.36665 1.37891,-0.65821 z" />
    <path
       style="font-style:normal;font-weight:normal;font-size:40px;line-height:125%;font-family:Helvetica75;-inkscape-font-specification:Helvetica75;letter-spacing:0px;word-spacing:0px;fill:#333333;fill-opacity:1;stroke:none;stroke-width:2.03321"
       d="m 194.80402,149.89414 h 6.22 v -31.28303 h -6.22 z"
       id="path3108-1-1" />
  </g>
</svg>
