<?xml version="1.0" encoding="UTF-8" standalone="no"?>
<svg
   xmlns:dc="http://purl.org/dc/elements/1.1/"
   xmlns:cc="http://creativecommons.org/ns#"
   xmlns:rdf="http://www.w3.org/1999/02/22-rdf-syntax-ns#"
   xmlns:svg="http://www.w3.org/2000/svg"
   xmlns="http://www.w3.org/2000/svg"
   xmlns:sodipodi="http://sodipodi.sourceforge.net/DTD/sodipodi-0.dtd"
   xmlns:inkscape="http://www.inkscape.org/namespaces/inkscape"
   inkscape:version="1.0 (4035a4fb49, 2020-05-01)"
   sodipodi:docname="logo.svg"
   id="svg8"
   version="1.1"
   width="252.14995"
   viewBox="0 0 252.14995 40.089272"
   height="40.089272"
   enable-background="new 0 0 64 64">
  <metadata
     id="metadata14">
    <rdf:RDF>
      <cc:Work
         rdf:about="">
        <dc:format>image/svg+xml</dc:format>
        <dc:type
           rdf:resource="http://purl.org/dc/dcmitype/StillImage" />
        <dc:title />
      </cc:Work>
    </rdf:RDF>
  </metadata>
  <defs
     id="defs12" />
  <sodipodi:namedview
     fit-margin-bottom="0"
     fit-margin-right="0"
     fit-margin-left="0"
     fit-margin-top="0"
     inkscape:current-layer="svg8"
     inkscape:window-maximized="1"
     inkscape:window-y="-8"
     inkscape:window-x="-8"
     inkscape:cy="46.426254"
     inkscape:cx="76.962023"
     inkscape:zoom="1.8567708"
     showgrid="false"
     id="namedview10"
     inkscape:window-height="705"
     inkscape:window-width="1366"
     inkscape:pageshadow="2"
     inkscape:pageopacity="0"
     guidetolerance="10"
     gridtolerance="10"
     objecttolerance="10"
     borderopacity="1"
     bordercolor="#666666"
     pagecolor="#ffffff"
     inkscape:document-rotation="0" />
  <g
     style="fill:#808080"
     transform="matrix(0.84049985,0,0,0.84049985,-47.447572,-9.4541978)"
     id="g904">
    <path
       inkscape:export-ydpi="90"
       inkscape:export-xdpi="90"
       id="path3106-3-3"
       d="m 64.926573,11.371674 c -4.64812,0 -8.47496,3.82766 -8.47496,8.47707 0,4.64917 3.82684,8.4957 8.47496,8.4957 3.32314,0 6.22676,-1.96742 7.61241,-4.78246 h 23.60615 v 12.84717 h -8.08114 c -1.38667,-2.81263 -4.27232,-4.76383 -7.59373,-4.76383 -4.64822,0 -8.47501,3.8279 -8.47501,8.47707 0,4.64941 3.82679,8.47707 8.47501,8.47707 3.32141,0 6.20706,-1.96983 7.59373,-4.78222 h 8.08114 v 4.78222 h 16.049947 c 2.77903,0 5.23042,-0.46664 7.34999,-1.38781 2.11944,-0.92093 3.9004,-2.23569 5.32488,-3.93845 1.42457,-1.70277 2.47422,-3.68735 3.16878,-5.96392 0.69441,-2.27633 1.04994,-4.77569 1.04999,-7.52068 0,-5.97722 -1.55942,-10.54583 -4.66869,-13.69084 -3.1094,-3.145 -7.18748,-4.72609 -12.22495,-4.72609 H 96.145133 v 4.78246 h -23.60615 c -1.38565,-2.81505 -4.28927,-4.78246 -7.61241,-4.78246 z m 0,5.77644 c 1.52855,0 2.71874,1.17155 2.71874,2.70063 0,1.52884 -1.19019,2.71925 -2.71874,2.71925 -1.52852,0 -2.70002,-1.19041 -2.70002,-2.71925 0,-1.52908 1.1715,-2.70063 2.70002,-2.70063 z m 39.412257,1.10648 h 5.83121 c 3.89131,0 6.65459,1.04817 8.28749,3.15081 1.63284,2.10239 2.43746,5.15595 2.43746,9.15231 0,1.98121 -0.24631,3.69632 -0.74998,5.13879 -0.50369,1.44223 -1.1936,2.60217 -2.06252,3.48827 -0.86893,0.8861 -1.84951,1.53174 -2.94374,1.93161 -1.09424,0.39986 -2.25511,0.6004 -3.50617,0.6004 h -7.29375 z m -23.868567,19.16718 c 1.52857,0 2.69992,1.17178 2.69992,2.70062 0,1.52908 -1.17135,2.70086 -2.69992,2.70086 -1.52862,0 -2.69999,-1.17178 -2.69999,-2.70086 0,-1.52884 1.17137,-2.70062 2.69999,-2.70062 z"
       style="color:#000000;font-style:normal;font-variant:normal;font-weight:normal;font-stretch:normal;font-size:medium;line-height:normal;font-family:Sans;-inkscape-font-specification:Sans;text-indent:0;text-align:start;text-decoration:none;text-decoration-line:none;letter-spacing:normal;word-spacing:normal;text-transform:none;writing-mode:lr-tb;direction:ltr;baseline-shift:baseline;text-anchor:start;display:inline;overflow:visible;visibility:visible;fill:#808080;fill-opacity:1;fill-rule:nonzero;stroke:none;stroke-width:29.8365;marker:none;enable-background:accumulate"
       inkscape:connector-curvature="0" />
    <path
       inkscape:export-ydpi="90"
       inkscape:export-xdpi="90"
       inkscape:connector-curvature="0"
       id="path3108-1"
       style="font-style:normal;font-weight:normal;font-size:40px;line-height:125%;font-family:Helvetica75;-inkscape-font-specification:Helvetica75;letter-spacing:0px;word-spacing:0px;fill:#808080;fill-opacity:1;stroke:none;stroke-width:2.41905"
       d="m 241.13299,48.597524 h 7.40036 v -37.21956 h -7.40036 z m -13.35335,-10.42634 c 0,0.59074 -0.052,1.2076 -0.15669,1.85082 -0.10447,0.64322 -0.34774,1.30386 -0.73,1.98144 -0.38219,0.67782 -0.99029,1.24242 -1.82417,1.6943 -0.83401,0.45188 -1.92846,0.67757 -3.28359,0.67757 -1.38897,0 -2.49163,-0.25182 -3.3081,-0.75546 -0.81645,-0.50389 -1.22464,-1.39893 -1.22464,-2.68539 0,-1.21653 0.38199,-2.11134 1.14591,-2.68466 0.76396,-0.57307 1.84091,-0.99882 3.23103,-1.27653 0.45168,-0.0701 1.04223,-0.15724 1.77169,-0.26101 1.14725,-0.17418 2.05968,-0.34786 2.73714,-0.52179 0.67761,-0.17417 1.22473,-0.43422 1.64142,-0.78111 z m -9.69372,-8.23598 c 0.13885,-1.42434 0.62519,-2.458 1.45921,-3.10146 0.83387,-0.64323 1.98032,-0.96472 3.43925,-0.96472 1.52897,0 2.71046,0.24336 3.54434,0.73032 0.83394,0.4867 1.25085,1.45964 1.25092,2.91906 0,1.11165 -0.50396,1.85841 -1.51168,2.24086 -1.00785,0.38245 -2.62347,0.71289 -4.84693,0.99181 -0.90345,0.10401 -1.70233,0.20804 -2.39682,0.31181 -1.32002,0.17418 -2.5015,0.41728 -3.54434,0.73031 -1.04277,0.31279 -1.98957,0.76467 -2.84053,1.35539 -0.85083,0.59074 -1.52816,1.38975 -2.03171,2.39728 -0.50369,1.00754 -0.75547,2.24149 -0.75547,3.70187 0,2.64088 0.85109,4.64771 2.55343,6.02052 1.70227,1.37305 3.9085,2.05934 6.61862,2.05934 1.77176,0 3.44804,-0.26924 5.029,-0.80796 1.58091,-0.53873 2.92693,-1.38152 4.03811,-2.52791 0.0351,0.7637 0.20891,1.63213 0.52165,2.6058 h 7.50533 c -0.31277,-0.52179 -0.54732,-1.31258 -0.70374,-2.37187 -0.15642,-1.05955 -0.23462,-2.26714 -0.23455,-3.62253 v -14.02331 c 0,-1.52932 -0.34761,-2.80658 -1.04257,-3.83153 -0.69503,-1.02495 -1.60711,-1.81574 -2.73633,-2.37188 -1.12928,-0.55638 -2.37994,-0.93859 -3.75195,-1.14711 -1.37195,-0.20804 -2.80549,-0.31254 -4.30049,-0.31254 -1.59793,0 -3.11783,0.14756 -4.55982,0.44293 -1.44199,0.2956 -2.76234,0.79949 -3.96105,1.51214 -1.19863,0.71265 -2.16273,1.651 -2.8922,2.81505 -0.72947,1.16404 -1.14617,2.58015 -1.2501,4.24833 z M 202.05737,13.566964 H 194.657 v 8.07986 h -4.48187 v 4.95252 h 4.48187 v 15.8988 c 0,1.28645 0.21714,2.35518 0.65133,3.20644 0.43413,0.85103 1.04196,1.51119 1.82343,1.98048 0.7814,0.4693 1.66736,0.79103 2.65758,0.96496 0.9903,0.17417 2.11108,0.26077 3.36227,0.26077 1.84166,0 3.28364,-0.0871 4.32601,-0.26077 v -5.78588 c -0.69564,0.13788 -1.46008,0.20804 -2.29341,0.20804 -1.2512,0 -2.08516,-0.20804 -2.50178,-0.62605 -0.41671,-0.41729 -0.62506,-1.25114 -0.62506,-2.50154 v -13.3455 h 5.42025 v -4.95252 h -5.42025 z m -22.6082,35.03056 h 7.40035 v -26.9507 h -7.40035 z m 7.40035,-37.21956 h -7.40035 v 6.09939 h 7.40035 z m -13.5681,10.26886 h -7.03614 v 3.59687 h -0.10329 c -0.86839,-1.52907 -1.96289,-2.63264 -3.28344,-3.31046 -1.32068,-0.67758 -2.90127,-1.01648 -4.74197,-1.01648 -1.84166,0 -3.48357,0.35632 -4.92556,1.06898 -1.44197,0.71265 -2.65817,1.69454 -3.64853,2.94543 -0.99031,1.25113 -1.73734,2.67595 -2.24089,4.27469 -0.50369,1.59885 -0.75546,3.28445 -0.75546,5.05664 0,1.91105 0.22569,3.68324 0.67752,5.31658 0.45171,1.63334 1.1467,3.06687 2.085,4.30083 0.93842,1.23395 2.14587,2.19818 3.62236,2.89293 1.47641,0.69451 3.18748,1.04189 5.13314,1.04189 1.66777,0 3.23995,-0.35608 4.71644,-1.06825 1.47642,-0.71217 2.59692,-1.74583 3.36139,-3.10122 h 0.10329 v 3.54438 c 0,2.05111 -0.49491,3.67623 -1.48466,4.87512 -0.98983,1.19888 -2.47503,1.79831 -4.45562,1.79831 -1.42511,0 -2.62401,-0.2869 -3.59683,-0.86045 -0.9728,-0.5738 -1.61508,-1.52085 -1.92682,-2.84142 h -7.34953 c 0.0704,1.45941 0.46973,2.74514 1.19927,3.85718 0.72946,1.11203 1.65884,2.01555 2.78807,2.71078 1.12921,0.69499 2.38005,1.21654 3.75269,1.5644 1.3725,0.3481 2.75322,0.52203 4.14231,0.52203 2.91896,0 5.32529,-0.38245 7.21904,-1.14711 1.89365,-0.76467 3.32687,-1.75526 4.29966,-2.97156 0.97287,-1.21654 1.62413,-2.48508 1.95392,-3.80541 0.32971,-1.32055 0.49457,-2.65828 0.49464,-4.01367 z m -13.34073,20.59055 c -1.07723,0 -2.00687,-0.23466 -2.78873,-0.70323 -0.782,-0.46881 -1.40761,-1.08542 -1.87679,-1.85008 -0.46917,-0.76466 -0.80794,-1.61641 -1.01629,-2.555 -0.20828,-0.93859 -0.31256,-1.92919 -0.31256,-2.97155 0,-2.18925 0.50396,-4.01355 1.51176,-5.47344 1.00784,-1.4599 2.50204,-2.18972 4.48261,-2.18972 1.14624,0 2.12748,0.21771 2.94396,0.65217 0.81645,0.43495 1.46797,1.03415 1.95464,1.79832 0.48666,0.76418 0.84265,1.64167 1.06803,2.63226 0.22521,0.9906 0.33796,2.0591 0.33796,3.20548 0,2.05111 -0.54711,3.80637 -1.64134,5.26579 -1.09426,1.45917 -2.64862,2.189 -4.66325,2.189 z m -25.78743,6.36015 h 7.40035 v -26.9507 h -7.40035 z m 7.40035,-37.21956 h -7.40035 v 6.09939 h 7.40035 z m 202.85835,36.88138 c -1.80681,0 -3.353,-0.32995 -4.63857,-0.99012 -1.28563,-0.6604 -2.30192,-1.5552 -3.04889,-2.68466 -0.74703,-1.12945 -1.28536,-2.41541 -1.61508,-3.85765 -0.32979,-1.44248 -0.49465,-3.01534 -0.49465,-4.7186 0,-1.6672 0.18239,-3.23958 0.54707,-4.71689 0.36481,-1.47741 0.93815,-2.78926 1.72008,-3.93565 0.78204,-1.14663 1.79825,-2.05014 3.0489,-2.71102 1.25058,-0.66065 2.74428,-0.99109 4.48114,-0.99109 1.73772,0 3.24915,0.33891 4.53428,1.01672 1.28506,0.67758 2.33606,1.60746 3.15307,2.7894 0.81698,1.18219 1.4163,2.51146 1.79803,3.98839 0.38165,1.47683 0.57256,2.99696 0.57256,4.56014 0,1.70326 -0.19981,3.29329 -0.59884,4.77013 -0.39921,1.47683 -1.01575,2.77125 -1.84962,3.88329 -0.83397,1.11204 -1.88497,1.98967 -3.15314,2.6329 -1.26806,0.64322 -2.75359,0.96471 -4.45634,0.96471 z m -9.84966,-25.70005 h -1.98011 v 36.38595 h 1.98011 v -15.16888 h 0.10499 c 0.76444,2.08521 1.99787,3.64018 3.70015,4.66514 1.70233,1.02518 3.71708,1.53754 6.04447,1.53754 3.96127,0 6.95822,-1.26831 8.9908,-3.80516 2.03253,-2.53686 3.0489,-5.92546 3.0489,-10.16557 0,-1.94612 -0.24336,-3.76161 -0.73002,-5.44697 -0.48674,-1.68544 -1.23376,-3.17969 -2.24094,-4.48307 -1.00731,-1.30339 -2.26666,-2.32011 -3.77809,-3.04969 -1.51147,-0.72958 -3.27498,-1.09462 -5.29065,-1.09462 -1.38902,0 -2.64811,0.21771 -3.77727,0.65169 -1.12928,0.43422 -2.09356,0.99012 -2.89309,1.66794 -0.79942,0.67757 -1.45101,1.40764 -1.95464,2.18971 -0.50362,0.78208 -0.87683,1.53803 -1.11962,2.26786 h -0.10499 z m -14.92325,0 h -1.98004 v 26.79466 h 1.98004 v -14.64853 c 0.10426,-1.94613 0.37328,-3.44908 0.80803,-4.50921 0.43473,-1.06002 1.17317,-2.12851 2.21549,-3.20499 0.93728,-0.93835 1.97058,-1.61641 3.09979,-2.0337 1.12924,-0.41728 2.23244,-0.62604 3.30967,-0.62604 0.10499,0 0.27892,0 0.52171,0 0.2078,0.0339 0.36417,0.0533 0.46911,0.0533 v -1.98047 c -2.53616,0 -4.75115,0.58202 -6.64484,1.74583 -1.89372,1.16404 -3.10134,2.61498 -3.623,4.35332 h -0.15603 z m -31.222,13.39822 c 0,1.91105 0.27778,3.71808 0.8334,5.42061 0.55564,1.70276 1.35459,3.19725 2.39682,4.48321 1.04232,1.28597 2.33665,2.29375 3.88312,3.02333 1.54639,0.72958 3.27492,1.09438 5.18561,1.09438 1.91062,0 3.63039,-0.3648 5.15942,-1.09438 1.52891,-0.72958 2.83176,-1.74631 3.90843,-3.04969 1.07681,-1.30338 1.88448,-2.79763 2.42316,-4.48298 0.53856,-1.68535 0.80789,-3.48343 0.80789,-5.39448 0,-1.91225 -0.26933,-3.71977 -0.80789,-5.42253 -0.53868,-1.70263 -1.33791,-3.19711 -2.39761,-4.48308 -1.05979,-1.28572 -2.36266,-2.29374 -3.90851,-3.02332 -1.54592,-0.72958 -3.27427,-1.09462 -5.18489,-1.09462 -1.91069,0 -3.63045,0.36504 -5.1594,1.09462 -1.52892,0.72958 -2.83204,1.7376 -3.90933,3.02332 -1.0772,1.28597 -1.88488,2.78045 -2.42302,4.48308 -0.53806,1.70276 -0.8072,3.51028 -0.8072,5.42253 z m 1.98012,0 c 0,-1.63334 0.22591,-3.18878 0.6776,-4.66609 0.45162,-1.47741 1.12044,-2.78926 2.00632,-3.93565 0.88581,-1.14663 1.97161,-2.05014 3.25724,-2.71102 1.28556,-0.66065 2.74476,-0.99109 4.37767,-0.99109 1.63283,0 3.09205,0.33044 4.37767,0.99109 1.28559,0.66088 2.37138,1.56439 3.25726,2.71102 0.8858,1.14639 1.55469,2.45824 2.00638,3.93565 0.45164,1.47731 0.67745,3.03275 0.67745,4.66609 0,1.6331 -0.22594,3.18831 -0.67745,4.66514 -0.45169,1.47682 -1.12058,2.78868 -2.00638,3.93579 -0.88588,1.14687 -1.97167,2.05038 -3.25726,2.71078 -1.28562,0.66017 -2.74484,0.99012 -4.37767,0.99012 -1.63291,0 -3.09211,-0.32995 -4.37767,-0.99012 -1.28563,-0.6604 -2.37143,-1.56391 -3.25724,-2.71078 -0.88588,-1.14711 -1.5547,-2.45897 -2.00632,-3.93579 -0.45169,-1.47683 -0.6776,-3.03204 -0.6776,-4.66514 z m -5.7399,-12.72065 c -0.0351,-0.48671 -0.25212,-1.33798 -0.65133,-2.55403 -0.39921,-1.21582 -1.11996,-2.55379 -2.16219,-4.01369 -1.04224,-1.4599 -2.57094,-2.7282 -4.58603,-3.80516 -2.01511,-1.0772 -4.53411,-1.61568 -7.55699,-1.61568 -2.71012,0 -5.16847,0.49518 -7.37491,1.48505 -2.2065,0.99012 -4.08268,2.37164 -5.6286,4.14431 -1.54593,1.77268 -2.71837,3.84919 -3.51725,6.22954 -0.7989,2.38058 -1.19839,4.92615 -1.19839,7.63703 0,2.71078 0.39949,5.25635 1.19839,7.63693 0.79888,2.38034 1.97132,4.45661 3.51725,6.22881 1.54592,1.77219 3.4221,3.15371 5.6286,4.14431 2.20644,0.99059 4.66479,1.48578 7.37491,1.48578 2.01455,0 3.92519,-0.38246 5.73193,-1.14711 1.80675,-0.76467 3.41359,-1.84187 4.82072,-3.23162 1.407,-1.38998 2.54487,-3.02331 3.41386,-4.89977 0.86887,-1.8767 1.4072,-3.91015 1.61509,-6.10036 h -2.29181 c -0.10508,1.7035 -0.51348,3.3632 -1.22546,4.97937 -0.71203,1.61641 -1.67613,3.05865 -2.89227,4.32719 -1.21614,1.26855 -2.60592,2.26762 -4.16933,2.9972 -1.56341,0.72959 -3.23097,1.09438 -5.00273,1.09438 -2.36237,0 -4.50789,-0.45164 -6.43654,-1.35539 -1.92873,-0.90352 -3.56184,-2.16311 -4.89941,-3.77904 -1.33751,-1.61568 -2.35387,-3.48367 -3.04889,-5.60373 -0.69496,-2.12004 -1.0425,-4.37896 -1.0425,-6.77695 0,-2.3981 0.34754,-4.65701 1.0425,-6.77707 0.69502,-2.12004 1.71138,-3.98804 3.04889,-5.60372 1.33757,-1.61568 2.97068,-2.87552 4.89941,-3.77903 1.92865,-0.90352 4.07417,-1.35539 6.43654,-1.35539 3.19572,0 5.98371,0.90351 8.36412,2.71078 2.38034,1.80727 3.81334,4.23962 4.299,7.29706 z" />
  </g>
</svg>
