<?xml version="1.0" encoding="UTF-8" standalone="no"?>
<svg
   xmlns:dc="http://purl.org/dc/elements/1.1/"
   xmlns:cc="http://creativecommons.org/ns#"
   xmlns:rdf="http://www.w3.org/1999/02/22-rdf-syntax-ns#"
   xmlns:svg="http://www.w3.org/2000/svg"
   xmlns="http://www.w3.org/2000/svg"
   xmlns:sodipodi="http://sodipodi.sourceforge.net/DTD/sodipodi-0.dtd"
   xmlns:inkscape="http://www.inkscape.org/namespaces/inkscape"
   enable-background="new 0 0 511.999 511.999"
   height="512"
   viewBox="0 0 511.999 511.999"
   width="512"
   version="1.1"
   id="svg38"
   sodipodi:docname="enterprise.svg"
   inkscape:version="1.0 (4035a4fb49, 2020-05-01)">
  <metadata
     id="metadata44">
    <rdf:RDF>
      <cc:Work
         rdf:about="">
        <dc:format>image/svg+xml</dc:format>
        <dc:type
           rdf:resource="http://purl.org/dc/dcmitype/StillImage" />
      </cc:Work>
    </rdf:RDF>
  </metadata>
  <defs
     id="defs42" />
  <sodipodi:namedview
     inkscape:document-rotation="0"
     pagecolor="#ffffff"
     bordercolor="#666666"
     borderopacity="1"
     objecttolerance="10"
     gridtolerance="10"
     guidetolerance="10"
     inkscape:pageopacity="0"
     inkscape:pageshadow="2"
     inkscape:window-width="1366"
     inkscape:window-height="705"
     id="namedview40"
     showgrid="false"
     inkscape:zoom="0.484375"
     inkscape:cx="-135.2781"
     inkscape:cy="291.34492"
     inkscape:window-x="-8"
     inkscape:window-y="-8"
     inkscape:window-maximized="1"
     inkscape:current-layer="svg38" />
  <ellipse
     cx="90.081"
     cy="353.661"
     fill="#2698d1"
     rx="34.999"
     ry="35"
     transform="matrix(1 -.019 .019 1 -6.781 1.797)"
     id="ellipse2" />
  <ellipse
     style="fill:#2698d1;fill-opacity:1"
     cx="332.007"
     cy="353.661"
     fill="#176cad"
     rx="34.999"
     ry="35"
     transform="matrix(1 -.018 .018 1 -6.259 5.982)"
     id="ellipse4" />
  <path
     style="fill:#a3efff;fill-opacity:1"
     d="m422.85 348.772h-422.84v-265.433h265.519c40.569 0 79.54 12.357 112.697 35.736l95.994 67.684c23.655 16.679 37.778 43.917 37.778 72.862.001 49.158-39.991 89.151-89.148 89.151z"
     fill="#d1f7ff"
     id="path22" />
  <path
     d="m474.221 186.759-95.994-67.684c-33.157-23.379-72.128-35.736-112.697-35.736h-9.524v265.433h166.844c49.157 0 89.149-39.993 89.149-89.151 0-28.945-14.123-56.183-37.778-72.862z"
     fill="#a3efff"
     id="path24" />
  <path
     d="m474.221 186.759-61.582-43.421h-141.634c-5.453 0-10.476 2.959-13.12 7.729-2.644 4.769-2.49 10.597.399 15.221l49.999 79.999c2.741 4.386 7.548 7.05 12.72 7.05h190.765c-1.883-26.565-15.613-51.112-37.547-66.578z"
     fill="#2698d1"
     id="path26" />
  <g
     fill="#72c5fc"
     id="g34">
    <path
       d="m93.335 238.337h33.333c5.523 0 10-4.477 10-10v-59.999c0-5.523-4.477-10-10-10h-33.333c-5.523 0-10 4.477-10 10v59.999c0 5.523 4.478 10 10 10z"
       id="path28" />
    <path
       d="m180.003 158.338h-3.334c-5.523 0-10 4.477-10 10v59.999c0 5.523 4.477 10 10 10h3.334c22.091 0 40-17.908 40-40-.001-22.09-17.909-39.999-40-39.999z"
       id="path30" />
    <path
       d="m43.335 158.338h-33.325c-5.523 0-10 4.477-10 10v59.999c0 5.523 4.477 10 10 10h33.325c5.523 0 10-4.477 10-10v-59.999c0-5.523-4.477-10-10-10z"
       id="path32" />
  </g>
</svg>
