<?xml version="1.0" encoding="UTF-8" standalone="no"?>
<svg
   xmlns:dc="http://purl.org/dc/elements/1.1/"
   xmlns:cc="http://creativecommons.org/ns#"
   xmlns:rdf="http://www.w3.org/1999/02/22-rdf-syntax-ns#"
   xmlns:svg="http://www.w3.org/2000/svg"
   xmlns="http://www.w3.org/2000/svg"
   xmlns:sodipodi="http://sodipodi.sourceforge.net/DTD/sodipodi-0.dtd"
   xmlns:inkscape="http://www.inkscape.org/namespaces/inkscape"
   inkscape:version="1.0 (4035a4fb49, 2020-05-01)"
   sodipodi:docname="pro.svg"
   id="svg22"
   version="1.1"
   width="512"
   viewBox="0 0 512 512"
   height="512"
   enable-background="new 0 0 512 512">
  <metadata
     id="metadata28">
    <rdf:RDF>
      <cc:Work
         rdf:about="">
        <dc:format>image/svg+xml</dc:format>
        <dc:type
           rdf:resource="http://purl.org/dc/dcmitype/StillImage" />
      </cc:Work>
    </rdf:RDF>
  </metadata>
  <defs
     id="defs26" />
  <sodipodi:namedview
     inkscape:current-layer="svg22"
     inkscape:window-maximized="1"
     inkscape:window-y="-8"
     inkscape:window-x="-8"
     inkscape:cy="256"
     inkscape:cx="256"
     inkscape:zoom="1.0039062"
     showgrid="false"
     id="namedview24"
     inkscape:window-height="705"
     inkscape:window-width="1366"
     inkscape:pageshadow="2"
     inkscape:pageopacity="0"
     guidetolerance="10"
     gridtolerance="10"
     objecttolerance="10"
     borderopacity="1"
     bordercolor="#666666"
     pagecolor="#ffffff" />
  <path
     id="path2"
     fill="#72c5fc"
     d="m365.409 228.626s-44.397-73.84-120.242-73.84c-32.532 0-56.263 0-56.263 0h-29.704c-54.207 0-104.598 27.898-133.371 73.838l-.001.002z" />
  <path
     id="path4"
     fill="#2698d1"
     d="m 545.8677,139.9723 h 109.409 c 0,0 -40.188,-66.831996 -109.409,-73.328996 z" />
  <path
     style="fill:#d9260f;fill-opacity:1"
     id="path6"
     fill="#ff674f"
     d="m506.137 260.902c-8.107-16.379-23.917-28.491-42.942-31.176l-88.871-14.821c-13.144-18.874-58.263-75.119-129.155-75.119h-85.969c-29.132 0-58.002 7.458-83.488 21.568-25.417 14.072-47.013 34.507-62.468 59.106l-7.447 11.103.005.003c-3.671 5.858-5.802 12.775-5.802 20.183v73.862c0 8.284 6.716 15 15 15h482c8.284 0 15-6.716 15-15v-34.709l-13.477-13.375zm-346.91-47.276h-102.754c9.867-10.283 21.251-19.094 33.77-26.025 21.051-11.654 44.896-17.814 68.957-17.814h.026v43.839zm30 0v-43.839h55.941c40.4 0 71.335 24.55 89.406 43.839z" />
  <path
     id="path8"
     fill="#d9260f"
     d="m506.137 260.902c-8.107-16.379-23.917-28.491-42.942-31.176l-88.871-14.821c-12.462-17.894-53.667-69.369-118.323-74.669v30.146c35.112 3.85 62.155 25.715 78.574 43.243h-78.575v126.985h241c8.284 0 15-6.716 15-15v-34.709l-13.477-13.375z" />
  <ellipse
     id="ellipse10"
     ry="33.908"
     rx="34.229"
     fill="#b0ac9b"
     cy="323.306"
     cx="387.448" />
  <path
     id="path12"
     fill="#181b1f"
     d="m387.448 372.214c-27.146 0-49.229-21.94-49.229-48.908s22.084-48.908 49.229-48.908 49.229 21.94 49.229 48.908-22.084 48.908-49.229 48.908zm0-67.816c-10.604 0-19.229 8.482-19.229 18.908s8.626 18.908 19.229 18.908 19.229-8.482 19.229-18.908-8.626-18.908-19.229-18.908z" />
  <ellipse
     id="ellipse14"
     ry="33.908"
     rx="34.229"
     fill="#b0ac9b"
     cy="323.306"
     cx="99.077" />
  <path
     style="fill:#181b1f;fill-opacity:1"
     id="path16"
     fill="#4c4a40"
     d="m99.076 372.214c-27.145 0-49.229-21.94-49.229-48.908s22.084-48.908 49.229-48.908c27.146 0 49.229 21.94 49.229 48.908.001 26.968-22.083 48.908-49.229 48.908zm0-67.816c-10.603 0-19.229 8.482-19.229 18.908s8.626 18.908 19.229 18.908c10.604 0 19.229-8.482 19.229-18.908.001-10.426-8.625-18.908-19.229-18.908z" />
  <path
     id="path18"
     fill="#ffcf2c"
     d="m465.258 275.902c0 8.284 6.716 15 15 15h31.742v-5c0-8.909-2.107-17.411-5.863-25h-25.879c-8.284 0-15 6.716-15 15z" />
  <path
     style="fill:#3d3c34;fill-opacity:1"
     id="path20"
     fill="#4c4a40"
     d="m241 290.902h-22.842c-8.284 0-15-6.716-15-15s6.716-15 15-15h22.842c8.284 0 15 6.716 15 15s-6.716 15-15 15z" />
</svg>
